<?xml version="1.0" encoding="UTF-8" standalone="no"?>
<!DOCTYPE svg PUBLIC "-//W3C//DTD SVG 1.1//EN"
 "http://www.w3.org/Graphics/SVG/1.1/DTD/svg11.dtd">
<!-- Generated by graphviz version 12.2.1 (20241206.2353)
 -->
<!-- Title: ThreatModel Pages: 1 -->
<svg width="1924pt" height="623pt"
 viewBox="0.00 0.00 1924.33 623.00" xmlns="http://www.w3.org/2000/svg" xmlns:xlink="http://www.w3.org/1999/xlink">
<g id="graph0" class="graph" transform="scale(1 1) rotate(0) translate(4 619)">
<title>ThreatModel</title>
<polygon fill="white" stroke="none" points="-4,4 -4,-619 1920.33,-619 1920.33,4 -4,4"/>
<g id="clust1" class="cluster">
<title>cluster_Internet</title>
<path fill="lightcoral" stroke="black" d="M20,-158C20,-158 160.77,-158 160.77,-158 166.77,-158 172.77,-164 172.77,-170 172.77,-170 172.77,-595 172.77,-595 172.77,-601 166.77,-607 160.77,-607 160.77,-607 20,-607 20,-607 14,-607 8,-601 8,-595 8,-595 8,-170 8,-170 8,-164 14,-158 20,-158"/>
<text text-anchor="middle" x="90.38" y="-593.5" font-family="Times New Roman,serif" font-size="10.00">Internet</text>
</g>
<g id="clust2" class="cluster">
<title>cluster_DMZ</title>
<path fill="khaki" stroke="red" stroke-width="3" stroke-dasharray="5,2" d="M287.27,-334C287.27,-334 1096.68,-334 1096.68,-334 1102.68,-334 1108.68,-340 1108.68,-346 1108.68,-346 1108.68,-425 1108.68,-425 1108.68,-431 1102.68,-437 1096.68,-437 1096.68,-437 287.27,-437 287.27,-437 281.27,-437 275.27,-431 275.27,-425 275.27,-425 275.27,-346 275.27,-346 275.27,-340 281.27,-334 287.27,-334"/>
<text text-anchor="middle" x="691.97" y="-419.7" font-family="Times New Roman,serif" font-size="14.00">DMZ</text>
</g>
<g id="clust3" class="cluster">
<title>cluster_Intranet</title>
<path fill="none" stroke="red" stroke-width="3" d="M924.71,-87C924.71,-87 1896.33,-87 1896.33,-87 1902.33,-87 1908.33,-93 1908.33,-99 1908.33,-99 1908.33,-314 1908.33,-314 1908.33,-320 1902.33,-326 1896.33,-326 1896.33,-326 924.71,-326 924.71,-326 918.71,-326 912.71,-320 912.71,-314 912.71,-314 912.71,-99 912.71,-99 912.71,-93 918.71,-87 924.71,-87"/>
<text text-anchor="middle" x="1410.52" y="-308.7" font-family="Times New Roman,serif" font-size="14.00">Intranet</text>
</g>
<g id="clust4" class="cluster">
<title>cluster_Command_Zone</title>
<path fill="none" stroke="black" d="M954.77,-8C954.77,-8 1072.27,-8 1072.27,-8 1078.27,-8 1084.27,-14 1084.27,-20 1084.27,-20 1084.27,-67 1084.27,-67 1084.27,-73 1078.27,-79 1072.27,-79 1072.27,-79 954.77,-79 954.77,-79 948.77,-79 942.77,-73 942.77,-67 942.77,-67 942.77,-20 942.77,-20 942.77,-14 948.77,-8 954.77,-8"/>
<text text-anchor="middle" x="1013.52" y="-65.5" font-family="Times New Roman,serif" font-size="10.00">Command_Zone</text>
</g>
<!-- External Client 1 -->
<g id="node1" class="node">
<title>External Client 1</title>
<ellipse fill="none" stroke="lightblue" cx="90.38" cy="-562" rx="74.38" ry="18"/>
<text text-anchor="middle" x="90.38" y="-556.95" font-family="Times New Roman,serif" font-size="14.00">External Client 1</text>
</g>
<!-- External Firewall -->
<g id="node9" class="node">
<title>External Firewall</title>
<polygon fill="red" stroke="black" points="463.71,-373 418.6,-404.03 328.38,-404.03 283.27,-373 328.38,-341.97 418.6,-341.97 463.71,-373"/>
<text text-anchor="middle" x="373.49" y="-374.7" font-family="Times New Roman,serif" font-size="14.00">🔥</text>
<text text-anchor="middle" x="373.49" y="-361.2" font-family="Times New Roman,serif" font-size="14.00">External Firewall</text>
</g>
<!-- External Client 1&#45;&gt;External Firewall -->
<g id="edge1" class="edge">
<title>External Client 1&#45;&gt;External Firewall</title>
<path fill="none" stroke="black" d="M165.02,-560.52C197.91,-556.85 235.8,-548.22 265.27,-529 307.6,-501.38 337.77,-450.63 355.11,-414.52"/>
<polygon fill="black" stroke="black" points="358.19,-416.21 359.23,-405.66 351.84,-413.25 358.19,-416.21"/>
<text text-anchor="middle" x="224.02" y="-578.12" font-family="Times New Roman,serif" font-size="7.00">test1</text>
<text text-anchor="middle" x="224.02" y="-569.12" font-family="Times New Roman,serif" font-size="7.00">Protocol: HTTPS</text>
<text text-anchor="middle" x="224.02" y="-560.12" font-family="Times New Roman,serif" font-size="7.00">Data: Web Traffic</text>
</g>
<!-- External Client 2 -->
<g id="node2" class="node">
<title>External Client 2</title>
<ellipse fill="lightblue" stroke="lightblue" cx="90.38" cy="-508" rx="74.38" ry="18"/>
<text text-anchor="middle" x="90.38" y="-502.95" font-family="Times New Roman,serif" font-size="14.00">External Client 2</text>
</g>
<!-- External Client 2&#45;&gt;External Firewall -->
<g id="edge2" class="edge">
<title>External Client 2&#45;&gt;External Firewall</title>
<path fill="none" stroke="black" d="M160.68,-501.79C193.74,-496.74 233.02,-487.59 265.27,-471 293.25,-456.6 319.44,-432.95 338.92,-412.49"/>
<polygon fill="black" stroke="black" points="341.31,-415.07 345.55,-405.36 336.18,-410.3 341.31,-415.07"/>
<text text-anchor="middle" x="224.02" y="-518.27" font-family="Times New Roman,serif" font-size="7.00">test</text>
<text text-anchor="middle" x="224.02" y="-509.27" font-family="Times New Roman,serif" font-size="7.00">Protocol: HTTP</text>
<text text-anchor="middle" x="224.02" y="-500.27" font-family="Times New Roman,serif" font-size="7.00">Data: Web Traffic</text>
</g>
<!-- External Client 3 -->
<g id="node3" class="node">
<title>External Client 3</title>
<ellipse fill="lightblue" stroke="lightblue" cx="90.38" cy="-454" rx="74.38" ry="18"/>
<text text-anchor="middle" x="90.38" y="-448.95" font-family="Times New Roman,serif" font-size="14.00">External Client 3</text>
</g>
<!-- External Client 3&#45;&gt;External Firewall -->
<g id="edge3" class="edge">
<title>External Client 3&#45;&gt;External Firewall</title>
<path fill="none" stroke="black" d="M156.27,-445.37C189.34,-440.05 229.94,-432.09 265.27,-421 280.14,-416.33 295.69,-410.17 310.19,-403.82"/>
<polygon fill="black" stroke="black" points="311.46,-407.09 319.16,-399.81 308.6,-400.7 311.46,-407.09"/>
<text text-anchor="middle" x="224.02" y="-460.67" font-family="Times New Roman,serif" font-size="7.00">Client 3 to External Firewall</text>
<text text-anchor="middle" x="224.02" y="-451.67" font-family="Times New Roman,serif" font-size="7.00">Protocol: FTP</text>
<text text-anchor="middle" x="224.02" y="-442.67" font-family="Times New Roman,serif" font-size="7.00">Data: File Transfer</text>
</g>
<!-- External Client 4 -->
<g id="node4" class="node">
<title>External Client 4</title>
<ellipse fill="lightblue" stroke="lightblue" cx="90.38" cy="-400" rx="74.38" ry="18"/>
<text text-anchor="middle" x="90.38" y="-394.95" font-family="Times New Roman,serif" font-size="14.00">External Client 4</text>
</g>
<!-- External Client 4&#45;&gt;External Firewall -->
<g id="edge4" class="edge">
<title>External Client 4&#45;&gt;External Firewall</title>
<path fill="none" stroke="black" d="M160.15,-393.4C196.92,-389.86 242.64,-385.47 282.23,-381.67"/>
<polygon fill="black" stroke="black" points="282.37,-385.17 291.99,-380.73 281.7,-378.2 282.37,-385.17"/>
<text text-anchor="middle" x="224.02" y="-410.85" font-family="Times New Roman,serif" font-size="7.00">Client 4 to External Firewall</text>
<text text-anchor="middle" x="224.02" y="-401.85" font-family="Times New Roman,serif" font-size="7.00">Protocol: SFTP</text>
<text text-anchor="middle" x="224.02" y="-392.85" font-family="Times New Roman,serif" font-size="7.00">Data: File Transfer</text>
</g>
<!-- External Client 5 -->
<g id="node5" class="node">
<title>External Client 5</title>
<ellipse fill="lightblue" stroke="lightblue" cx="90.38" cy="-346" rx="74.38" ry="18"/>
<text text-anchor="middle" x="90.38" y="-340.95" font-family="Times New Roman,serif" font-size="14.00">External Client 5</text>
</g>
<!-- External Client 5&#45;&gt;External Firewall -->
<g id="edge5" class="edge">
<title>External Client 5&#45;&gt;External Firewall</title>
<path fill="none" stroke="black" d="M165.17,-346.62C196.16,-347.49 232.54,-349.31 265.27,-353 274.09,-354 283.29,-355.3 292.42,-356.76"/>
<polygon fill="black" stroke="black" points="291.56,-360.17 302,-358.37 292.72,-353.26 291.56,-360.17"/>
<text text-anchor="middle" x="224.02" y="-373.35" font-family="Times New Roman,serif" font-size="7.00">Client 5 to External Firewall</text>
<text text-anchor="middle" x="224.02" y="-364.35" font-family="Times New Roman,serif" font-size="7.00">Protocol: DNS</text>
<text text-anchor="middle" x="224.02" y="-355.35" font-family="Times New Roman,serif" font-size="7.00">Data: DNS Query</text>
</g>
<!-- External Client 6 -->
<g id="node6" class="node">
<title>External Client 6</title>
<ellipse fill="lightblue" stroke="lightblue" cx="90.38" cy="-292" rx="74.38" ry="18"/>
<text text-anchor="middle" x="90.38" y="-286.95" font-family="Times New Roman,serif" font-size="14.00">External Client 6</text>
</g>
<!-- External Client 6&#45;&gt;External Firewall -->
<g id="edge6" class="edge">
<title>External Client 6&#45;&gt;External Firewall</title>
<path fill="none" stroke="black" d="M162.87,-296.18C194.78,-299.48 232.5,-305.4 265.27,-316 282.21,-321.48 299.65,-329.56 315.42,-337.91"/>
<polygon fill="black" stroke="black" points="313.73,-340.98 324.18,-342.69 317.08,-334.83 313.73,-340.98"/>
<text text-anchor="middle" x="224.02" y="-336.35" font-family="Times New Roman,serif" font-size="7.00">Client 6 to External Firewall</text>
<text text-anchor="middle" x="224.02" y="-327.35" font-family="Times New Roman,serif" font-size="7.00">Protocol: SMTP</text>
<text text-anchor="middle" x="224.02" y="-318.35" font-family="Times New Roman,serif" font-size="7.00">Data: Mail Traffic</text>
</g>
<!-- External Client 7 -->
<g id="node7" class="node">
<title>External Client 7</title>
<ellipse fill="lightblue" stroke="lightblue" cx="90.38" cy="-238" rx="74.38" ry="18"/>
<text text-anchor="middle" x="90.38" y="-232.95" font-family="Times New Roman,serif" font-size="14.00">External Client 7</text>
</g>
<!-- External Client 7&#45;&gt;External Firewall -->
<g id="edge7" class="edge">
<title>External Client 7&#45;&gt;External Firewall</title>
<path fill="none" stroke="black" d="M164.26,-240.82C196.63,-244.47 234.31,-252.16 265.27,-268 295.37,-283.4 322.5,-310.17 341.95,-332.82"/>
<polygon fill="black" stroke="black" points="339.2,-335 348.3,-340.43 344.57,-330.51 339.2,-335"/>
<text text-anchor="middle" x="224.02" y="-288.35" font-family="Times New Roman,serif" font-size="7.00">Client 7 to External Firewall</text>
<text text-anchor="middle" x="224.02" y="-279.35" font-family="Times New Roman,serif" font-size="7.00">Protocol: RTSP</text>
<text text-anchor="middle" x="224.02" y="-270.35" font-family="Times New Roman,serif" font-size="7.00">Data: Video Stream</text>
</g>
<!-- External Client 8 -->
<g id="node8" class="node">
<title>External Client 8</title>
<ellipse fill="lightblue" stroke="lightblue" cx="90.38" cy="-184" rx="74.38" ry="18"/>
<text text-anchor="middle" x="90.38" y="-178.95" font-family="Times New Roman,serif" font-size="14.00">External Client 8</text>
</g>
<!-- External Client 8&#45;&gt;External Firewall -->
<g id="edge8" class="edge">
<title>External Client 8&#45;&gt;External Firewall</title>
<path fill="none" stroke="black" d="M165.04,-182.85C197.93,-185.47 235.82,-193.06 265.27,-212 309.29,-240.31 339.45,-293.82 356.31,-331.35"/>
<polygon fill="black" stroke="black" points="352.91,-332.32 360.11,-340.09 359.33,-329.53 352.91,-332.32"/>
<text text-anchor="middle" x="224.02" y="-232.35" font-family="Times New Roman,serif" font-size="7.00">Client 8 to External Firewall</text>
<text text-anchor="middle" x="224.02" y="-223.35" font-family="Times New Roman,serif" font-size="7.00">Protocol: MQTT</text>
<text text-anchor="middle" x="224.02" y="-214.35" font-family="Times New Roman,serif" font-size="7.00">Data: IoT Data</text>
</g>
<!-- Protocol Break Device -->
<g id="node10" class="node">
<title>Protocol Break Device</title>
<polygon fill="lightgreen" stroke="black" points="763.21,-391 623.46,-391 623.46,-355 763.21,-355 763.21,-391"/>
<text text-anchor="middle" x="693.34" y="-367.95" font-family="Times New Roman,serif" font-size="14.00">Protocol Break Device</text>
</g>
<!-- External Firewall&#45;&gt;Protocol Break Device -->
<g id="edge9" class="edge">
<title>External Firewall&#45;&gt;Protocol Break Device</title>
<path fill="none" stroke="black" d="M464.3,-373C510.65,-373 566.75,-373 611.71,-373"/>
<polygon fill="black" stroke="black" points="611.67,-376.5 621.67,-373 611.67,-369.5 611.67,-376.5"/>
<text text-anchor="middle" x="543.59" y="-393.35" font-family="Times New Roman,serif" font-size="7.00">External Firewall to Protocol Break Device</text>
<text text-anchor="middle" x="543.59" y="-384.35" font-family="Times New Roman,serif" font-size="7.00">Protocol: HTTPS</text>
<text text-anchor="middle" x="543.59" y="-375.35" font-family="Times New Roman,serif" font-size="7.00">Data: Web Traffic</text>
</g>
<!-- Internal Firewall -->
<g id="node11" class="node">
<title>Internal Firewall</title>
<polygon fill="red" stroke="black" points="1100.68,-373 1057.1,-404.03 969.94,-404.03 926.36,-373 969.94,-341.97 1057.1,-341.97 1100.68,-373"/>
<text text-anchor="middle" x="1013.52" y="-374.7" font-family="Times New Roman,serif" font-size="14.00">🔥</text>
<text text-anchor="middle" x="1013.52" y="-361.2" font-family="Times New Roman,serif" font-size="14.00">Internal Firewall</text>
</g>
<!-- Protocol Break Device&#45;&gt;Internal Firewall -->
<g id="edge10" class="edge">
<title>Protocol Break Device&#45;&gt;Internal Firewall</title>
<path fill="none" stroke="black" d="M763.38,-373C807.55,-373 865.53,-373 914.44,-373"/>
<polygon fill="black" stroke="black" points="914.18,-376.5 924.18,-373 914.18,-369.5 914.18,-376.5"/>
<text text-anchor="middle" x="841.96" y="-393.35" font-family="Times New Roman,serif" font-size="7.00">Protocol Break Device to Internal Firewall</text>
<text text-anchor="middle" x="841.96" y="-384.35" font-family="Times New Roman,serif" font-size="7.00">Protocol: HTTPS</text>
<text text-anchor="middle" x="841.96" y="-375.35" font-family="Times New Roman,serif" font-size="7.00">Data: Web Traffic</text>
</g>
<!-- Switch -->
<g id="node15" class="node">
<title>Switch</title>
<polygon fill="orange" stroke="black" points="1291.95,-197 1238.45,-159 1291.95,-121 1345.45,-159 1291.95,-197"/>
<text text-anchor="middle" x="1291.95" y="-160.7" font-family="Times New Roman,serif" font-size="14.00">🔀</text>
<text text-anchor="middle" x="1291.95" y="-147.2" font-family="Times New Roman,serif" font-size="14.00">Switch</text>
</g>
<!-- Internal Firewall&#45;&gt;Switch -->
<g id="edge11" class="edge">
<title>Internal Firewall&#45;&gt;Switch</title>
<path fill="none" stroke="black" d="M1069.57,-350.8C1082.74,-344.7 1096.5,-337.64 1108.68,-330 1161.8,-296.69 1176.11,-287.25 1217.33,-240 1227.3,-228.57 1225.7,-222.73 1235.33,-211 1242.16,-202.67 1250.29,-194.37 1258.18,-186.93"/>
<polygon fill="black" stroke="black" points="1260.46,-189.59 1265.48,-180.25 1255.74,-184.43 1260.46,-189.59"/>
<text text-anchor="middle" x="1170.83" y="-339.28" font-family="Times New Roman,serif" font-size="7.00">Internal Firewall to Switch</text>
<text text-anchor="middle" x="1170.83" y="-330.28" font-family="Times New Roman,serif" font-size="7.00">Protocol: Ethernet</text>
<text text-anchor="middle" x="1170.83" y="-321.28" font-family="Times New Roman,serif" font-size="7.00">Data: General Traffic</text>
</g>
<!-- Internal Operator 1 -->
<g id="node12" class="node">
<title>Internal Operator 1</title>
<ellipse fill="yellow" stroke="black" cx="1013.52" cy="-113" rx="82.06" ry="18"/>
<text text-anchor="middle" x="1013.52" y="-107.95" font-family="Times New Roman,serif" font-size="14.00">Internal Operator 1</text>
</g>
<!-- Internal Operator 1&#45;&gt;Switch -->
<g id="edge13" class="edge">
<title>Internal Operator 1&#45;&gt;Switch</title>
<path fill="none" stroke="black" d="M1095.8,-114.41C1133.2,-116.43 1177.93,-120.8 1217.33,-130 1227.64,-132.41 1238.42,-136 1248.45,-139.84"/>
<polygon fill="black" stroke="black" points="1247,-143.02 1257.58,-143.49 1249.6,-136.53 1247,-143.02"/>
<text text-anchor="middle" x="1170.83" y="-150.35" font-family="Times New Roman,serif" font-size="7.00">Internal Operator 1 to Switch</text>
<text text-anchor="middle" x="1170.83" y="-141.35" font-family="Times New Roman,serif" font-size="7.00">Protocol: Ethernet</text>
<text text-anchor="middle" x="1170.83" y="-132.35" font-family="Times New Roman,serif" font-size="7.00">Data: General Traffic</text>
</g>
<!-- Internal Operator 2 -->
<g id="node13" class="node">
<title>Internal Operator 2</title>
<ellipse fill="forestgreen" stroke="forestgreen" cx="1013.52" cy="-167" rx="82.06" ry="18"/>
<text text-anchor="middle" x="1013.52" y="-161.95" font-family="Times New Roman,serif" font-size="14.00">Internal Operator 2</text>
</g>
<!-- Internal Operator 2&#45;&gt;Switch -->
<g id="edge14" class="edge">
<title>Internal Operator 2&#45;&gt;Switch</title>
<path fill="none" stroke="black" d="M1095.22,-164.66C1137.72,-163.43 1189.04,-161.95 1228.47,-160.81"/>
<polygon fill="black" stroke="black" points="1228.38,-164.31 1238.27,-160.52 1228.17,-157.32 1228.38,-164.31"/>
<text text-anchor="middle" x="1170.83" y="-184.07" font-family="Times New Roman,serif" font-size="7.00">Internal Operator 2 to Switch</text>
<text text-anchor="middle" x="1170.83" y="-175.07" font-family="Times New Roman,serif" font-size="7.00">Protocol: Ethernet</text>
<text text-anchor="middle" x="1170.83" y="-166.07" font-family="Times New Roman,serif" font-size="7.00">Data: General Traffic</text>
</g>
<!-- System Administrator -->
<g id="node14" class="node">
<title>System Administrator</title>
<ellipse fill="forestgreen" stroke="forestgreen" cx="1013.52" cy="-221" rx="92.81" ry="18"/>
<text text-anchor="middle" x="1013.52" y="-215.95" font-family="Times New Roman,serif" font-size="14.00">System Administrator</text>
</g>
<!-- System Administrator&#45;&gt;Switch -->
<g id="edge15" class="edge">
<title>System Administrator&#45;&gt;Switch</title>
<path fill="none" stroke="black" d="M1098.45,-213.6C1135.39,-209.07 1179,-201.96 1217.33,-191 1228.07,-187.93 1239.3,-183.64 1249.66,-179.21"/>
<polygon fill="black" stroke="black" points="1250.99,-182.45 1258.71,-175.19 1248.15,-176.05 1250.99,-182.45"/>
<text text-anchor="middle" x="1170.83" y="-229.72" font-family="Times New Roman,serif" font-size="7.00">System Administrator to Switch</text>
<text text-anchor="middle" x="1170.83" y="-220.72" font-family="Times New Roman,serif" font-size="7.00">Protocol: Ethernet</text>
<text text-anchor="middle" x="1170.83" y="-211.72" font-family="Times New Roman,serif" font-size="7.00">Data: General Traffic</text>
</g>
<!-- Central Server -->
<g id="node16" class="node">
<title>Central Server</title>
<polygon fill="lightgreen" stroke="black" points="1615.83,-247 1521.08,-247 1521.08,-211 1615.83,-211 1615.83,-247"/>
<text text-anchor="middle" x="1568.45" y="-223.95" font-family="Times New Roman,serif" font-size="14.00">Central Server</text>
</g>
<!-- System Administrator&#45;&gt;Central Server -->
<g id="edge17" class="edge">
<title>System Administrator&#45;&gt;Central Server</title>
<path fill="none" stroke="black" d="M1079.31,-234.1C1094.05,-236.56 1109.68,-238.74 1124.33,-240 1262,-251.82 1424.54,-241.65 1509.34,-234.52"/>
<polygon fill="black" stroke="black" points="1509.61,-238.01 1519.27,-233.67 1509.01,-231.04 1509.61,-238.01"/>
<text text-anchor="middle" x="1291.95" y="-265.77" font-family="Times New Roman,serif" font-size="7.00">System Administrator to Central Server</text>
<text text-anchor="middle" x="1291.95" y="-256.77" font-family="Times New Roman,serif" font-size="7.00">Protocol: SSH</text>
<text text-anchor="middle" x="1291.95" y="-247.77" font-family="Times New Roman,serif" font-size="7.00">Data: SSH Traffic</text>
</g>
<!-- Authentication Server -->
<g id="node18" class="node">
<title>Authentication Server</title>
<polygon fill="lightgreen" stroke="black" points="1900.33,-265 1765.08,-265 1765.08,-229 1900.33,-229 1900.33,-265"/>
<text text-anchor="middle" x="1832.7" y="-241.95" font-family="Times New Roman,serif" font-size="14.00">Authentication Server</text>
</g>
<!-- System Administrator&#45;&gt;Authentication Server -->
<g id="edge18" class="edge">
<title>System Administrator&#45;&gt;Authentication Server</title>
<path fill="none" stroke="black" d="M1069.39,-235.74C1123.86,-250.08 1203.66,-270.25 1235.33,-274 1334.26,-285.71 1521.52,-283.24 1747.08,-261 1749.24,-260.79 1751.44,-260.55 1753.65,-260.3"/>
<polygon fill="black" stroke="black" points="1753.84,-263.8 1763.33,-259.08 1752.97,-256.86 1753.84,-263.8"/>
<text text-anchor="middle" x="1434.83" y="-301.25" font-family="Times New Roman,serif" font-size="7.00">System Administrator to Authentication Server</text>
<text text-anchor="middle" x="1434.83" y="-292.25" font-family="Times New Roman,serif" font-size="7.00">Protocol: LDAPS</text>
<text text-anchor="middle" x="1434.83" y="-283.25" font-family="Times New Roman,serif" font-size="7.00">Data: Authentication Request</text>
</g>
<!-- Switch&#45;&gt;Central Server -->
<g id="edge16" class="edge">
<title>Switch&#45;&gt;Central Server</title>
<path fill="none" stroke="black" d="M1337.51,-165.08C1380.52,-171.62 1447.17,-183.47 1503.08,-201 1508.12,-202.58 1513.3,-204.43 1518.42,-206.41"/>
<polygon fill="black" stroke="black" points="1516.82,-209.54 1527.41,-210.04 1519.45,-203.05 1516.82,-209.54"/>
<text text-anchor="middle" x="1434.83" y="-221.35" font-family="Times New Roman,serif" font-size="7.00">Switch to Central Server</text>
<text text-anchor="middle" x="1434.83" y="-212.35" font-family="Times New Roman,serif" font-size="7.00">Protocol: HTTPS</text>
<text text-anchor="middle" x="1434.83" y="-203.35" font-family="Times New Roman,serif" font-size="7.00">Data: Server Request</text>
</g>
<!-- Central Server&#45;&gt;Authentication Server -->
<g id="edge19" class="edge">
<title>Central Server&#45;&gt;Authentication Server</title>
<path fill="none" stroke="black" d="M1616.29,-228.73C1652.16,-228.91 1702.83,-229.99 1747.08,-234 1749.24,-234.2 1751.44,-234.41 1753.65,-234.65"/>
<polygon fill="black" stroke="black" points="1752.98,-238.09 1763.31,-235.77 1753.78,-231.14 1752.98,-238.09"/>
<text text-anchor="middle" x="1690.45" y="-254.35" font-family="Times New Roman,serif" font-size="7.00">Central Server to Authentication Server</text>
<text text-anchor="middle" x="1690.45" y="-245.35" font-family="Times New Roman,serif" font-size="7.00">Protocol: LDAPS</text>
<text text-anchor="middle" x="1690.45" y="-236.35" font-family="Times New Roman,serif" font-size="7.00">Data: Authentication Request</text>
</g>
<!-- Application Database -->
<g id="node17" class="node">
<title>Application Database</title>
<polygon fill="lightgreen" stroke="black" points="1080.02,-293 947.02,-293 947.02,-257 1080.02,-257 1080.02,-293"/>
<text text-anchor="middle" x="1013.52" y="-269.95" font-family="Times New Roman,serif" font-size="14.00">Application Database</text>
</g>
<!-- Command Machine -->
<g id="node19" class="node">
<title>Command Machine</title>
<polygon fill="lightgreen" stroke="black" points="1076.27,-52 950.77,-52 950.77,-16 1076.27,-16 1076.27,-52"/>
<text text-anchor="middle" x="1013.52" y="-28.95" font-family="Times New Roman,serif" font-size="14.00">Command Machine</text>
</g>
<!-- Command Machine&#45;&gt;Switch -->
<g id="edge12" class="edge">
<title>Command Machine&#45;&gt;Switch</title>
<path fill="none" stroke="black" d="M1076.71,-41.26C1118.58,-48.17 1173.86,-61.34 1217.33,-86 1235.22,-96.15 1251.81,-111.79 1264.69,-125.99"/>
<polygon fill="black" stroke="black" points="1262,-128.22 1271.22,-133.44 1267.27,-123.61 1262,-128.22"/>
<text text-anchor="middle" x="1170.83" y="-106.35" font-family="Times New Roman,serif" font-size="7.00">Command Machine to Switch</text>
<text text-anchor="middle" x="1170.83" y="-97.35" font-family="Times New Roman,serif" font-size="7.00">Protocol: Ethernet</text>
<text text-anchor="middle" x="1170.83" y="-88.35" font-family="Times New Roman,serif" font-size="7.00">Data: General Traffic</text>
</g>
</g>
</svg>
