<?xml version="1.0" encoding="UTF-8" standalone="no"?>
<!DOCTYPE svg PUBLIC "-//W3C//DTD SVG 1.1//EN"
 "http://www.w3.org/Graphics/SVG/1.1/DTD/svg11.dtd">
<!-- Generated by graphviz version 12.2.1 (20241206.2353)
 -->
<!-- Title: ThreatModel Pages: 1 -->
<svg width="2175pt" height="622pt"
 viewBox="0.00 0.00 2175.38 622.00" xmlns="http://www.w3.org/2000/svg" xmlns:xlink="http://www.w3.org/1999/xlink">
<g id="graph0" class="graph" transform="scale(1 1) rotate(0) translate(4 618)">
<title>ThreatModel</title>
<polygon fill="white" stroke="none" points="-4,4 -4,-618 2171.38,-618 2171.38,4 -4,4"/>
<g id="clust1" class="cluster">
<title>cluster_Internet</title>
<polygon fill="lightcoral" stroke="black" points="8,-151 8,-606 172.77,-606 172.77,-151 8,-151"/>
<text text-anchor="middle" x="90.38" y="-588.7" font-family="Times New Roman,serif" font-size="14.00">Internet</text>
</g>
<g id="clust2" class="cluster">
<title>cluster_DMZ</title>
<polygon fill="khaki" stroke="black" points="309.02,-340 309.02,-432 1141.45,-432 1141.45,-340 309.02,-340"/>
<text text-anchor="middle" x="725.23" y="-414.7" font-family="Times New Roman,serif" font-size="14.00">DMZ</text>
</g>
<g id="clust3" class="cluster">
<title>cluster_Intranet</title>
<polygon fill="lightgreen" stroke="black" points="979.27,-93 979.27,-332 2159.38,-332 2159.38,-93 979.27,-93"/>
<text text-anchor="middle" x="1569.32" y="-314.7" font-family="Times New Roman,serif" font-size="14.00">Intranet</text>
</g>
<g id="clust4" class="cluster">
<title>cluster_Command_Zone</title>
<polygon fill="lightsteelblue" stroke="black" points="1009.32,-8 1009.32,-85 1150.82,-85 1150.82,-8 1009.32,-8"/>
<text text-anchor="middle" x="1080.07" y="-67.7" font-family="Times New Roman,serif" font-size="14.00">Command_Zone</text>
</g>
<!-- External Client 1 -->
<g id="node1" class="node">
<title>External Client 1</title>
<ellipse fill="yellow" stroke="black" cx="90.38" cy="-555" rx="74.38" ry="18"/>
<text text-anchor="middle" x="90.38" y="-549.95" font-family="Times New Roman,serif" font-size="14.00">External Client 1</text>
</g>
<!-- External Firewall -->
<g id="node9" class="node">
<title>External Firewall</title>
<polygon fill="lightgreen" stroke="black" points="427.52,-384 317.02,-384 317.02,-348 427.52,-348 427.52,-384"/>
<text text-anchor="middle" x="372.27" y="-360.95" font-family="Times New Roman,serif" font-size="14.00">External Firewall</text>
</g>
<!-- External Client 1&#45;&gt;External Firewall -->
<g id="edge1" class="edge">
<title>External Client 1&#45;&gt;External Firewall</title>
<path fill="none" stroke="black" d="M150.68,-565.91C195.56,-570.77 256.53,-569.72 299.02,-539 345.63,-505.3 362.31,-435.69 368.18,-395.8"/>
<polygon fill="black" stroke="black" points="371.64,-396.32 369.48,-385.95 364.7,-395.41 371.64,-396.32"/>
<text text-anchor="middle" x="240.89" y="-592.33" font-family="Times New Roman,serif" font-size="10.00">Client 1 to External Firewall</text>
<text text-anchor="middle" x="240.89" y="-581.08" font-family="Times New Roman,serif" font-size="10.00">Protocol: HTTPS</text>
<text text-anchor="middle" x="240.89" y="-569.83" font-family="Times New Roman,serif" font-size="10.00">Data: Web Traffic</text>
</g>
<!-- External Client 2 -->
<g id="node2" class="node">
<title>External Client 2</title>
<ellipse fill="yellow" stroke="black" cx="90.38" cy="-501" rx="74.38" ry="18"/>
<text text-anchor="middle" x="90.38" y="-495.95" font-family="Times New Roman,serif" font-size="14.00">External Client 2</text>
</g>
<!-- External Client 2&#45;&gt;External Firewall -->
<g id="edge2" class="edge">
<title>External Client 2&#45;&gt;External Firewall</title>
<path fill="none" stroke="black" d="M164.96,-501.9C215.44,-501.23 277.11,-497.48 299.02,-484 331.74,-463.87 351.78,-422.82 362.21,-394.86"/>
<polygon fill="black" stroke="black" points="365.46,-396.16 365.48,-385.56 358.86,-393.84 365.46,-396.16"/>
<text text-anchor="middle" x="240.89" y="-525.69" font-family="Times New Roman,serif" font-size="10.00">Client 2 to External Firewall</text>
<text text-anchor="middle" x="240.89" y="-514.44" font-family="Times New Roman,serif" font-size="10.00">Protocol: HTTP</text>
<text text-anchor="middle" x="240.89" y="-503.19" font-family="Times New Roman,serif" font-size="10.00">Data: Web Traffic</text>
</g>
<!-- External Client 3 -->
<g id="node3" class="node">
<title>External Client 3</title>
<ellipse fill="yellow" stroke="black" cx="90.38" cy="-447" rx="74.38" ry="18"/>
<text text-anchor="middle" x="90.38" y="-441.95" font-family="Times New Roman,serif" font-size="14.00">External Client 3</text>
</g>
<!-- External Client 3&#45;&gt;External Firewall -->
<g id="edge3" class="edge">
<title>External Client 3&#45;&gt;External Firewall</title>
<path fill="none" stroke="black" d="M164.85,-447.08C205.68,-444.87 256.64,-438.3 299.02,-421 315.74,-414.17 331.96,-402.44 344.78,-391.56"/>
<polygon fill="black" stroke="black" points="346.77,-394.48 351.95,-385.24 342.13,-389.23 346.77,-394.48"/>
<text text-anchor="middle" x="240.89" y="-470.06" font-family="Times New Roman,serif" font-size="10.00">Client 3 to External Firewall</text>
<text text-anchor="middle" x="240.89" y="-458.81" font-family="Times New Roman,serif" font-size="10.00">Protocol: FTP</text>
<text text-anchor="middle" x="240.89" y="-447.56" font-family="Times New Roman,serif" font-size="10.00">Data: File Transfer</text>
</g>
<!-- External Client 4 -->
<g id="node4" class="node">
<title>External Client 4</title>
<ellipse fill="yellow" stroke="black" cx="90.38" cy="-393" rx="74.38" ry="18"/>
<text text-anchor="middle" x="90.38" y="-387.95" font-family="Times New Roman,serif" font-size="14.00">External Client 4</text>
</g>
<!-- External Client 4&#45;&gt;External Firewall -->
<g id="edge4" class="edge">
<title>External Client 4&#45;&gt;External Firewall</title>
<path fill="none" stroke="black" d="M160.21,-386.36C204.48,-382.09 261.7,-376.57 305.38,-372.36"/>
<polygon fill="black" stroke="black" points="305.63,-375.85 315.25,-371.4 304.96,-368.88 305.63,-375.85"/>
<text text-anchor="middle" x="240.89" y="-407.75" font-family="Times New Roman,serif" font-size="10.00">Client 4 to External Firewall</text>
<text text-anchor="middle" x="240.89" y="-396.5" font-family="Times New Roman,serif" font-size="10.00">Protocol: SFTP</text>
<text text-anchor="middle" x="240.89" y="-385.25" font-family="Times New Roman,serif" font-size="10.00">Data: File Transfer</text>
</g>
<!-- External Client 5 -->
<g id="node5" class="node">
<title>External Client 5</title>
<ellipse fill="yellow" stroke="black" cx="90.38" cy="-339" rx="74.38" ry="18"/>
<text text-anchor="middle" x="90.38" y="-333.95" font-family="Times New Roman,serif" font-size="14.00">External Client 5</text>
</g>
<!-- External Client 5&#45;&gt;External Firewall -->
<g id="edge5" class="edge">
<title>External Client 5&#45;&gt;External Firewall</title>
<path fill="none" stroke="black" d="M156.58,-330.6C197.82,-327.05 252.03,-325.67 299.02,-335.25 307.75,-337.03 316.74,-339.91 325.28,-343.21"/>
<polygon fill="black" stroke="black" points="323.82,-346.39 334.4,-346.98 326.5,-339.92 323.82,-346.39"/>
<text text-anchor="middle" x="240.89" y="-359.5" font-family="Times New Roman,serif" font-size="10.00">Client 5 to External Firewall</text>
<text text-anchor="middle" x="240.89" y="-348.25" font-family="Times New Roman,serif" font-size="10.00">Protocol: DNS</text>
<text text-anchor="middle" x="240.89" y="-337" font-family="Times New Roman,serif" font-size="10.00">Data: DNS Query</text>
</g>
<!-- External Client 6 -->
<g id="node6" class="node">
<title>External Client 6</title>
<ellipse fill="yellow" stroke="black" cx="90.38" cy="-285" rx="74.38" ry="18"/>
<text text-anchor="middle" x="90.38" y="-279.95" font-family="Times New Roman,serif" font-size="14.00">External Client 6</text>
</g>
<!-- External Client 6&#45;&gt;External Firewall -->
<g id="edge6" class="edge">
<title>External Client 6&#45;&gt;External Firewall</title>
<path fill="none" stroke="black" d="M152.21,-274.66C195.09,-270.14 252.86,-269.8 299.02,-290.25 321.73,-300.31 340.78,-321.23 353.61,-338.53"/>
<polygon fill="black" stroke="black" points="350.58,-340.31 359.21,-346.45 356.29,-336.26 350.58,-340.31"/>
<text text-anchor="middle" x="240.89" y="-314.5" font-family="Times New Roman,serif" font-size="10.00">Client 6 to External Firewall</text>
<text text-anchor="middle" x="240.89" y="-303.25" font-family="Times New Roman,serif" font-size="10.00">Protocol: SMTP</text>
<text text-anchor="middle" x="240.89" y="-292" font-family="Times New Roman,serif" font-size="10.00">Data: Mail Traffic</text>
</g>
<!-- External Client 7 -->
<g id="node7" class="node">
<title>External Client 7</title>
<ellipse fill="yellow" stroke="black" cx="90.38" cy="-231" rx="74.38" ry="18"/>
<text text-anchor="middle" x="90.38" y="-225.95" font-family="Times New Roman,serif" font-size="14.00">External Client 7</text>
</g>
<!-- External Client 7&#45;&gt;External Firewall -->
<g id="edge7" class="edge">
<title>External Client 7&#45;&gt;External Firewall</title>
<path fill="none" stroke="black" d="M143.55,-218.09C188.11,-210.09 252.24,-206.06 299.02,-234.25 336.23,-256.68 355.6,-305.69 364.6,-337.2"/>
<polygon fill="black" stroke="black" points="361.11,-337.71 367.06,-346.47 367.87,-335.91 361.11,-337.71"/>
<text text-anchor="middle" x="240.89" y="-258.5" font-family="Times New Roman,serif" font-size="10.00">Client 7 to External Firewall</text>
<text text-anchor="middle" x="240.89" y="-247.25" font-family="Times New Roman,serif" font-size="10.00">Protocol: RTSP</text>
<text text-anchor="middle" x="240.89" y="-236" font-family="Times New Roman,serif" font-size="10.00">Data: Video Stream</text>
</g>
<!-- External Client 8 -->
<g id="node8" class="node">
<title>External Client 8</title>
<ellipse fill="yellow" stroke="black" cx="90.38" cy="-177" rx="74.38" ry="18"/>
<text text-anchor="middle" x="90.38" y="-171.95" font-family="Times New Roman,serif" font-size="14.00">External Client 8</text>
</g>
<!-- External Client 8&#45;&gt;External Firewall -->
<g id="edge8" class="edge">
<title>External Client 8&#45;&gt;External Firewall</title>
<path fill="none" stroke="black" d="M136.22,-162.5C181.47,-150.83 251.28,-141.23 299.02,-174.25 352.23,-211.07 366.3,-292.37 369.99,-336.36"/>
<polygon fill="black" stroke="black" points="366.48,-336.46 370.67,-346.2 373.47,-335.98 366.48,-336.46"/>
<text text-anchor="middle" x="240.89" y="-198.5" font-family="Times New Roman,serif" font-size="10.00">Client 8 to External Firewall</text>
<text text-anchor="middle" x="240.89" y="-187.25" font-family="Times New Roman,serif" font-size="10.00">Protocol: MQTT</text>
<text text-anchor="middle" x="240.89" y="-176" font-family="Times New Roman,serif" font-size="10.00">Data: IoT Data</text>
</g>
<!-- Protocol Break Device -->
<g id="node10" class="node">
<title>Protocol Break Device</title>
<polygon fill="lightgreen" stroke="black" points="778.77,-384 639.02,-384 639.02,-348 778.77,-348 778.77,-384"/>
<text text-anchor="middle" x="708.89" y="-360.95" font-family="Times New Roman,serif" font-size="14.00">Protocol Break Device</text>
</g>
<!-- External Firewall&#45;&gt;Protocol Break Device -->
<g id="edge9" class="edge">
<title>External Firewall&#45;&gt;Protocol Break Device</title>
<path fill="none" stroke="black" d="M427.77,-366C481.91,-366 565.53,-366 627.33,-366"/>
<polygon fill="black" stroke="black" points="627.09,-369.5 637.09,-366 627.09,-362.5 627.09,-369.5"/>
<text text-anchor="middle" x="533.27" y="-390.25" font-family="Times New Roman,serif" font-size="10.00">External Firewall to Protocol Break Device</text>
<text text-anchor="middle" x="533.27" y="-379" font-family="Times New Roman,serif" font-size="10.00">Protocol: HTTPS</text>
<text text-anchor="middle" x="533.27" y="-367.75" font-family="Times New Roman,serif" font-size="10.00">Data: Web Traffic</text>
</g>
<!-- Internal Firewall -->
<g id="node11" class="node">
<title>Internal Firewall</title>
<polygon fill="lightgreen" stroke="black" points="1133.45,-384 1026.7,-384 1026.7,-348 1133.45,-348 1133.45,-384"/>
<text text-anchor="middle" x="1080.07" y="-360.95" font-family="Times New Roman,serif" font-size="14.00">Internal Firewall</text>
</g>
<!-- Protocol Break Device&#45;&gt;Internal Firewall -->
<g id="edge10" class="edge">
<title>Protocol Break Device&#45;&gt;Internal Firewall</title>
<path fill="none" stroke="black" d="M778.9,-366C846.53,-366 948.79,-366 1014.76,-366"/>
<polygon fill="black" stroke="black" points="1014.72,-369.5 1024.72,-366 1014.72,-362.5 1014.72,-369.5"/>
<text text-anchor="middle" x="883.02" y="-390.25" font-family="Times New Roman,serif" font-size="10.00">Protocol Break Device to Internal Firewall</text>
<text text-anchor="middle" x="883.02" y="-379" font-family="Times New Roman,serif" font-size="10.00">Protocol: HTTPS</text>
<text text-anchor="middle" x="883.02" y="-367.75" font-family="Times New Roman,serif" font-size="10.00">Data: Web Traffic</text>
</g>
<!-- Switch -->
<g id="node15" class="node">
<title>Switch</title>
<polygon fill="lightgreen" stroke="black" points="1445.13,-193 1391.13,-193 1391.13,-157 1445.13,-157 1445.13,-193"/>
<text text-anchor="middle" x="1418.13" y="-169.95" font-family="Times New Roman,serif" font-size="14.00">Switch</text>
</g>
<!-- Internal Firewall&#45;&gt;Switch -->
<g id="edge11" class="edge">
<title>Internal Firewall&#45;&gt;Switch</title>
<path fill="none" stroke="black" d="M1133.47,-350.25C1146.48,-345.97 1160.29,-341.1 1172.88,-336 1240.59,-308.59 1272.93,-319.32 1320.63,-264 1337.98,-243.88 1320.62,-226.53 1338.63,-207 1349.52,-195.19 1365.4,-187.63 1380.03,-182.85"/>
<polygon fill="black" stroke="black" points="1380.79,-186.27 1389.42,-180.13 1378.84,-179.55 1380.79,-186.27"/>
<text text-anchor="middle" x="1255.76" y="-353.07" font-family="Times New Roman,serif" font-size="10.00">Internal Firewall to Switch</text>
<text text-anchor="middle" x="1255.76" y="-341.82" font-family="Times New Roman,serif" font-size="10.00">Protocol: Ethernet</text>
<text text-anchor="middle" x="1255.76" y="-330.57" font-family="Times New Roman,serif" font-size="10.00">Data: General Traffic</text>
</g>
<!-- Internal Operator 1 -->
<g id="node12" class="node">
<title>Internal Operator 1</title>
<ellipse fill="yellow" stroke="black" cx="1080.07" cy="-119" rx="82.06" ry="18"/>
<text text-anchor="middle" x="1080.07" y="-113.95" font-family="Times New Roman,serif" font-size="14.00">Internal Operator 1</text>
</g>
<!-- Internal Operator 1&#45;&gt;Switch -->
<g id="edge13" class="edge">
<title>Internal Operator 1&#45;&gt;Switch</title>
<path fill="none" stroke="black" d="M1162.4,-118.64C1209.2,-119.97 1268.83,-124.29 1320.63,-136.25 1341.03,-140.96 1362.74,-149.35 1380.4,-157.12"/>
<polygon fill="black" stroke="black" points="1378.88,-160.28 1389.44,-161.22 1381.77,-153.9 1378.88,-160.28"/>
<text text-anchor="middle" x="1255.76" y="-160.5" font-family="Times New Roman,serif" font-size="10.00">Internal Operator 1 to Switch</text>
<text text-anchor="middle" x="1255.76" y="-149.25" font-family="Times New Roman,serif" font-size="10.00">Protocol: Ethernet</text>
<text text-anchor="middle" x="1255.76" y="-138" font-family="Times New Roman,serif" font-size="10.00">Data: General Traffic</text>
</g>
<!-- Internal Operator 2 -->
<g id="node13" class="node">
<title>Internal Operator 2</title>
<ellipse fill="yellow" stroke="black" cx="1080.07" cy="-173" rx="82.06" ry="18"/>
<text text-anchor="middle" x="1080.07" y="-167.95" font-family="Times New Roman,serif" font-size="14.00">Internal Operator 2</text>
</g>
<!-- Internal Operator 2&#45;&gt;Switch -->
<g id="edge14" class="edge">
<title>Internal Operator 2&#45;&gt;Switch</title>
<path fill="none" stroke="black" d="M1162.42,-173.48C1231.45,-173.89 1327.34,-174.47 1379.56,-174.78"/>
<polygon fill="black" stroke="black" points="1379.41,-178.28 1389.43,-174.84 1379.45,-171.28 1379.41,-178.28"/>
<text text-anchor="middle" x="1255.76" y="-198.66" font-family="Times New Roman,serif" font-size="10.00">Internal Operator 2 to Switch</text>
<text text-anchor="middle" x="1255.76" y="-187.41" font-family="Times New Roman,serif" font-size="10.00">Protocol: Ethernet</text>
<text text-anchor="middle" x="1255.76" y="-176.16" font-family="Times New Roman,serif" font-size="10.00">Data: General Traffic</text>
</g>
<!-- System Administrator -->
<g id="node14" class="node">
<title>System Administrator</title>
<ellipse fill="yellow" stroke="black" cx="1080.07" cy="-227" rx="92.81" ry="18"/>
<text text-anchor="middle" x="1080.07" y="-221.95" font-family="Times New Roman,serif" font-size="14.00">System Administrator</text>
</g>
<!-- System Administrator&#45;&gt;Switch -->
<g id="edge15" class="edge">
<title>System Administrator&#45;&gt;Switch</title>
<path fill="none" stroke="black" d="M1173.23,-227.07C1218.12,-225.53 1272.65,-221.32 1320.63,-211 1340.9,-206.64 1362.6,-198.85 1380.28,-191.62"/>
<polygon fill="black" stroke="black" points="1381.46,-194.92 1389.33,-187.82 1378.75,-188.47 1381.46,-194.92"/>
<text text-anchor="middle" x="1255.76" y="-250.58" font-family="Times New Roman,serif" font-size="10.00">System Administrator to Switch</text>
<text text-anchor="middle" x="1255.76" y="-239.33" font-family="Times New Roman,serif" font-size="10.00">Protocol: Ethernet</text>
<text text-anchor="middle" x="1255.76" y="-228.08" font-family="Times New Roman,serif" font-size="10.00">Data: General Traffic</text>
</g>
<!-- Central Server -->
<g id="node16" class="node">
<title>Central Server</title>
<polygon fill="lightgreen" stroke="black" points="1819.63,-244 1724.88,-244 1724.88,-208 1819.63,-208 1819.63,-244"/>
<text text-anchor="middle" x="1772.26" y="-220.95" font-family="Times New Roman,serif" font-size="14.00">Central Server</text>
</g>
<!-- System Administrator&#45;&gt;Central Server -->
<g id="edge17" class="edge">
<title>System Administrator&#45;&gt;Central Server</title>
<path fill="none" stroke="black" d="M1137.59,-241.48C1149.42,-245.11 1161.69,-249.32 1172.88,-254 1181.32,-257.53 1182.02,-261.7 1190.88,-264 1218.79,-271.23 1294.4,-275.97 1320.63,-264 1331.74,-258.93 1327.63,-248.54 1338.63,-243.25 1371.51,-227.45 1603.3,-225.69 1713.42,-225.77"/>
<polygon fill="black" stroke="black" points="1713.13,-229.27 1723.13,-225.78 1713.13,-222.27 1713.13,-229.27"/>
<text text-anchor="middle" x="1418.13" y="-267.5" font-family="Times New Roman,serif" font-size="10.00">System Administrator to Central Server</text>
<text text-anchor="middle" x="1418.13" y="-256.25" font-family="Times New Roman,serif" font-size="10.00">Protocol: SSH</text>
<text text-anchor="middle" x="1418.13" y="-245" font-family="Times New Roman,serif" font-size="10.00">Data: SSH Traffic</text>
</g>
<!-- Authentication Server -->
<g id="node18" class="node">
<title>Authentication Server</title>
<polygon fill="lightgreen" stroke="black" points="2151.38,-264 2016.13,-264 2016.13,-228 2151.38,-228 2151.38,-264"/>
<text text-anchor="middle" x="2083.76" y="-240.95" font-family="Times New Roman,serif" font-size="14.00">Authentication Server</text>
</g>
<!-- System Administrator&#45;&gt;Authentication Server -->
<g id="edge18" class="edge">
<title>System Administrator&#45;&gt;Authentication Server</title>
<path fill="none" stroke="black" d="M1143.23,-240.41C1153.54,-243.99 1163.81,-248.45 1172.88,-254 1182.8,-260.07 1180.26,-268.26 1190.88,-273 1250.87,-299.77 1272.95,-276.11 1338.63,-277 1631.8,-280.97 1706.51,-291.35 1998.13,-261 2000.3,-260.77 2002.5,-260.53 2004.72,-260.26"/>
<polygon fill="black" stroke="black" points="2004.95,-263.76 2014.4,-258.96 2004.03,-256.82 2004.95,-263.76"/>
<text text-anchor="middle" x="1611.26" y="-306.21" font-family="Times New Roman,serif" font-size="10.00">System Administrator to Authentication Server</text>
<text text-anchor="middle" x="1611.26" y="-294.96" font-family="Times New Roman,serif" font-size="10.00">Protocol: LDAPS</text>
<text text-anchor="middle" x="1611.26" y="-283.71" font-family="Times New Roman,serif" font-size="10.00">Data: Authentication Request</text>
</g>
<!-- Switch&#45;&gt;Central Server -->
<g id="edge16" class="edge">
<title>Switch&#45;&gt;Central Server</title>
<path fill="none" stroke="black" d="M1445.57,-172.5C1497.06,-168.48 1613.85,-163.5 1706.88,-190.25 1716.33,-192.97 1725.91,-197.28 1734.69,-201.98"/>
<polygon fill="black" stroke="black" points="1732.84,-204.95 1743.26,-206.86 1736.3,-198.87 1732.84,-204.95"/>
<text text-anchor="middle" x="1611.26" y="-214.5" font-family="Times New Roman,serif" font-size="10.00">Switch to Central Server</text>
<text text-anchor="middle" x="1611.26" y="-203.25" font-family="Times New Roman,serif" font-size="10.00">Protocol: HTTPS</text>
<text text-anchor="middle" x="1611.26" y="-192" font-family="Times New Roman,serif" font-size="10.00">Data: Server Request</text>
</g>
<!-- Central Server&#45;&gt;Authentication Server -->
<g id="edge19" class="edge">
<title>Central Server&#45;&gt;Authentication Server</title>
<path fill="none" stroke="black" d="M1819.94,-223.38C1865.54,-221.5 1936.83,-220.37 1998.13,-227.25 2000.32,-227.5 2002.53,-227.77 2004.76,-228.08"/>
<polygon fill="black" stroke="black" points="2004.08,-231.52 2014.5,-229.6 2005.16,-224.6 2004.08,-231.52"/>
<text text-anchor="middle" x="1917.88" y="-251.5" font-family="Times New Roman,serif" font-size="10.00">Central Server to Authentication Server</text>
<text text-anchor="middle" x="1917.88" y="-240.25" font-family="Times New Roman,serif" font-size="10.00">Protocol: LDAPS</text>
<text text-anchor="middle" x="1917.88" y="-229" font-family="Times New Roman,serif" font-size="10.00">Data: Authentication Request</text>
</g>
<!-- Application Database -->
<g id="node17" class="node">
<title>Application Database</title>
<polygon fill="lightgreen" stroke="black" points="1146.57,-299 1013.57,-299 1013.57,-263 1146.57,-263 1146.57,-299"/>
<text text-anchor="middle" x="1080.07" y="-275.95" font-family="Times New Roman,serif" font-size="14.00">Application Database</text>
</g>
<!-- Command Machine -->
<g id="node19" class="node">
<title>Command Machine</title>
<polygon fill="lightgreen" stroke="black" points="1142.82,-52 1017.32,-52 1017.32,-16 1142.82,-16 1142.82,-52"/>
<text text-anchor="middle" x="1080.07" y="-28.95" font-family="Times New Roman,serif" font-size="14.00">Command Machine</text>
</g>
<!-- Command Machine&#45;&gt;Switch -->
<g id="edge12" class="edge">
<title>Command Machine&#45;&gt;Switch</title>
<path fill="none" stroke="black" d="M1143.3,-36.97C1193.63,-41.56 1265,-53.13 1320.63,-82.25 1351.12,-98.21 1378.63,-126.74 1396.4,-147.96"/>
<polygon fill="black" stroke="black" points="1393.64,-150.12 1402.67,-155.66 1399.07,-145.7 1393.64,-150.12"/>
<text text-anchor="middle" x="1255.76" y="-106.5" font-family="Times New Roman,serif" font-size="10.00">Command Machine to Switch</text>
<text text-anchor="middle" x="1255.76" y="-95.25" font-family="Times New Roman,serif" font-size="10.00">Protocol: Ethernet</text>
<text text-anchor="middle" x="1255.76" y="-84" font-family="Times New Roman,serif" font-size="10.00">Data: General Traffic</text>
</g>
</g>
</svg>
