<?xml version="1.0" encoding="UTF-8" standalone="no"?>
<!DOCTYPE svg PUBLIC "-//W3C//DTD SVG 1.1//EN"
 "http://www.w3.org/Graphics/SVG/1.1/DTD/svg11.dtd">
<!-- Generated by graphviz version 12.2.1 (20241206.2353)
 -->
<!-- Title: ThreatModel Pages: 1 -->
<svg width="1683pt" height="417pt"
 viewBox="0.00 0.00 1682.89 417.00" xmlns="http://www.w3.org/2000/svg" xmlns:xlink="http://www.w3.org/1999/xlink">
<g id="graph0" class="graph" transform="scale(1 1) rotate(0) translate(4 413)">
<title>ThreatModel</title>
<polygon fill="white" stroke="none" points="-4,4 -4,-413 1678.89,-413 1678.89,4 -4,4"/>
<g id="clust1" class="cluster">
<title>cluster_Client__Browser_Mobile_</title>
<path fill="lightblue" stroke="black" d="M67.98,-88C67.98,-88 183.15,-88 183.15,-88 189.15,-88 195.15,-94 195.15,-100 195.15,-100 195.15,-147 195.15,-147 195.15,-153 189.15,-159 183.15,-159 183.15,-159 67.98,-159 67.98,-159 61.98,-159 55.98,-153 55.98,-147 55.98,-147 55.98,-100 55.98,-100 55.98,-94 61.98,-88 67.98,-88"/>
<text text-anchor="middle" x="125.56" y="-145.5" font-family="Times New Roman,serif" font-size="10.00">Client (Browser/Mobile)</text>
</g>
<g id="clust2" class="cluster">
<title>cluster_API_Gateway</title>
<path fill="orange" stroke="black" d="M387.63,-330C387.63,-330 749.63,-330 749.63,-330 755.63,-330 761.63,-336 761.63,-342 761.63,-342 761.63,-389 761.63,-389 761.63,-395 755.63,-401 749.63,-401 749.63,-401 387.63,-401 387.63,-401 381.63,-401 375.63,-395 375.63,-389 375.63,-389 375.63,-342 375.63,-342 375.63,-336 381.63,-330 387.63,-330"/>
<text text-anchor="middle" x="568.63" y="-387.5" font-family="Times New Roman,serif" font-size="10.00">API Gateway</text>
</g>
<g id="clust3" class="cluster">
<title>cluster_FaaS_Function__Lambda_Cloud_Functions_</title>
<path fill="green" stroke="red" stroke-width="3" d="M458,-245C458,-245 680.25,-245 680.25,-245 686.25,-245 692.25,-251 692.25,-257 692.25,-257 692.25,-310 692.25,-310 692.25,-316 686.25,-322 680.25,-322 680.25,-322 458,-322 458,-322 452,-322 446,-316 446,-310 446,-310 446,-257 446,-257 446,-251 452,-245 458,-245"/>
<text text-anchor="middle" x="569.13" y="-304.7" font-family="Times New Roman,serif" font-size="14.00">FaaS Function (Lambda/Cloud Functions)</text>
</g>
<g id="clust4" class="cluster">
<title>cluster_NoSQL_Database__DynamoDB_Firestore_</title>
<path fill="purple" stroke="red" stroke-width="3" d="M460.25,-160C460.25,-160 678,-160 678,-160 684,-160 690,-166 690,-172 690,-172 690,-225 690,-225 690,-231 684,-237 678,-237 678,-237 460.25,-237 460.25,-237 454.25,-237 448.25,-231 448.25,-225 448.25,-225 448.25,-172 448.25,-172 448.25,-166 454.25,-160 460.25,-160"/>
<text text-anchor="middle" x="569.13" y="-219.7" font-family="Times New Roman,serif" font-size="14.00">NoSQL Database (DynamoDB/Firestore)</text>
</g>
<g id="clust5" class="cluster">
<title>cluster_Object_Storage__S3_Cloud_Storage_</title>
<path fill="gray" stroke="red" stroke-width="3" d="M1463.64,-88C1463.64,-88 1645.39,-88 1645.39,-88 1651.39,-88 1657.39,-94 1657.39,-100 1657.39,-100 1657.39,-153 1657.39,-153 1657.39,-159 1651.39,-165 1645.39,-165 1645.39,-165 1463.64,-165 1463.64,-165 1457.64,-165 1451.64,-159 1451.64,-153 1451.64,-153 1451.64,-100 1451.64,-100 1451.64,-94 1457.64,-88 1463.64,-88"/>
<text text-anchor="middle" x="1554.51" y="-147.7" font-family="Times New Roman,serif" font-size="14.00">Object Storage (S3/Cloud Storage)</text>
</g>
<!-- End User -->
<g id="node1" class="node">
<title>End User</title>
<ellipse fill="yellow" stroke="black" cx="125.56" cy="-114" rx="61.59" ry="18"/>
<text text-anchor="middle" x="125.56" y="-108.95" font-family="Times New Roman,serif" font-size="14.00">👤 End User</text>
</g>
<!-- CloudFront/CDN -->
<g id="node8" class="node">
<title>CloudFront/CDN</title>
<polygon fill="lightgray" stroke="lightgray" points="635.5,-132 501.75,-132 501.75,-96 635.5,-96 635.5,-132"/>
<text text-anchor="middle" x="568.63" y="-108.95" font-family="Times New Roman,serif" font-size="14.00">🖥️ CloudFront/CDN</text>
</g>
<!-- End User&#45;&gt;CloudFront/CDN -->
<g id="edge1" class="edge HTTPS">
<title>End User&#45;&gt;CloudFront/CDN</title>
<path fill="none" stroke="darkgreen" d="M198.9,-114C279.04,-114 407.78,-114 489.99,-114"/>
<polygon fill="darkgreen" stroke="darkgreen" points="198.94,-110.5 188.94,-114 198.94,-117.5 198.94,-110.5"/>
<polygon fill="darkgreen" stroke="darkgreen" points="489.76,-117.5 499.76,-114 489.76,-110.5 489.76,-117.5"/>
<text text-anchor="middle" x="317.38" y="-134.35" font-family="Times New Roman,serif" font-size="7.00">Client Request</text>
<text text-anchor="middle" x="317.38" y="-125.35" font-family="Times New Roman,serif" font-size="7.00">Protocol: HTTPS</text>
<text text-anchor="middle" x="317.38" y="-116.35" font-family="Times New Roman,serif" font-size="7.00">↔️ Bidirectional</text>
</g>
<!-- API Gateway (AWS API Gateway/Google Cloud Endpoints) -->
<g id="node2" class="node">
<title>API Gateway (AWS API Gateway/Google Cloud Endpoints)</title>
<polygon fill="lightyellow" stroke="black" points="753.63,-374 383.63,-374 383.63,-338 753.63,-338 753.63,-374"/>
<text text-anchor="middle" x="568.63" y="-350.95" font-family="Times New Roman,serif" font-size="14.00">🔌 API Gateway (AWS API Gateway/Google Cloud Endpoints)</text>
</g>
<!-- Lambda Function/Cloud Function -->
<g id="node3" class="node">
<title>Lambda Function/Cloud Function</title>
<polygon fill="lightgreen" stroke="black" points="680.88,-289 456.38,-289 456.38,-253 680.88,-253 680.88,-289"/>
<text text-anchor="middle" x="568.63" y="-265.95" font-family="Times New Roman,serif" font-size="14.00">🖥️ Lambda Function/Cloud Function</text>
</g>
<!-- DynamoDB/Firestore -->
<g id="node4" class="node">
<title>DynamoDB/Firestore</title>
<path fill="lightblue" stroke="black" d="M647.13,-200.73C647.13,-202.53 611.94,-204 568.63,-204 525.31,-204 490.13,-202.53 490.13,-200.73 490.13,-200.73 490.13,-171.27 490.13,-171.27 490.13,-169.47 525.31,-168 568.63,-168 611.94,-168 647.13,-169.47 647.13,-171.27 647.13,-171.27 647.13,-200.73 647.13,-200.73"/>
<path fill="none" stroke="black" d="M647.13,-200.73C647.13,-198.92 611.94,-197.45 568.63,-197.45 525.31,-197.45 490.13,-198.92 490.13,-200.73"/>
<text text-anchor="middle" x="568.63" y="-180.95" font-family="Times New Roman,serif" font-size="14.00">🗄️ DynamoDB/Firestore</text>
</g>
<!-- S3 Bucket/Cloud Storage -->
<g id="node5" class="node">
<title>S3 Bucket/Cloud Storage</title>
<polygon fill="lightgreen" stroke="black" points="1642.64,-132 1465.39,-132 1465.39,-96 1642.64,-96 1642.64,-132"/>
<text text-anchor="middle" x="1554.01" y="-108.95" font-family="Times New Roman,serif" font-size="14.00">🖥️ S3 Bucket/Cloud Storage</text>
</g>
<!-- Developer/Cloud Operator -->
<g id="node6" class="node">
<title>Developer/Cloud Operator</title>
<ellipse fill="blue" stroke="blue" cx="125.56" cy="-271" rx="125.56" ry="18"/>
<text text-anchor="middle" x="125.56" y="-265.95" font-family="Times New Roman,serif" font-size="14.00">👤 Developer/Cloud Operator</text>
</g>
<!-- Developer/Cloud Operator&#45;&gt;API Gateway (AWS API Gateway/Google Cloud Endpoints) -->
<g id="edge8" class="edge API">
<title>Developer/Cloud Operator&#45;&gt;API Gateway (AWS API Gateway/Google Cloud Endpoints)</title>
<path fill="none" stroke="black" stroke-dasharray="1,5" d="M185.81,-287.17C236.04,-300.41 310.13,-318.88 375.63,-331 384.5,-332.64 393.62,-334.21 402.84,-335.71"/>
<polygon fill="black" stroke="black" points="402.21,-339.16 412.63,-337.27 403.31,-332.24 402.21,-339.16"/>
<text text-anchor="middle" x="317.38" y="-338.43" font-family="Times New Roman,serif" font-size="7.00">Developer to API Gateway</text>
<text text-anchor="middle" x="317.38" y="-329.43" font-family="Times New Roman,serif" font-size="7.00">Protocol: API</text>
</g>
<!-- Developer/Cloud Operator&#45;&gt;Lambda Function/Cloud Function -->
<g id="edge9" class="edge API">
<title>Developer/Cloud Operator&#45;&gt;Lambda Function/Cloud Function</title>
<path fill="none" stroke="black" stroke-dasharray="1,5" d="M251.48,-271C312.02,-271 384.48,-271 444.75,-271"/>
<polygon fill="black" stroke="black" points="444.73,-274.5 454.73,-271 444.73,-267.5 444.73,-274.5"/>
<text text-anchor="middle" x="317.38" y="-282.35" font-family="Times New Roman,serif" font-size="7.00">Developer to FaaS Function</text>
<text text-anchor="middle" x="317.38" y="-273.35" font-family="Times New Roman,serif" font-size="7.00">Protocol: API</text>
</g>
<!-- Developer/Cloud Operator&#45;&gt;DynamoDB/Firestore -->
<g id="edge10" class="edge Management">
<title>Developer/Cloud Operator&#45;&gt;DynamoDB/Firestore</title>
<path fill="none" stroke="darkblue" d="M202.39,-256.39C279.07,-241.61 397.56,-218.77 478.65,-203.15"/>
<polygon fill="darkblue" stroke="darkblue" points="479.19,-206.61 488.35,-201.28 477.86,-199.73 479.19,-206.61"/>
<text text-anchor="middle" x="317.38" y="-252.43" font-family="Times New Roman,serif" font-size="7.00">Developer to NoSQL Database</text>
<text text-anchor="middle" x="317.38" y="-243.43" font-family="Times New Roman,serif" font-size="7.00">Protocol: Management</text>
</g>
<!-- Attacker -->
<g id="node7" class="node">
<title>Attacker</title>
<ellipse fill="red" stroke="red" cx="905.88" cy="-19" rx="58" ry="18"/>
<text text-anchor="middle" x="905.88" y="-13.95" font-family="Times New Roman,serif" font-size="14.00">👤 Attacker</text>
</g>
<!-- FaaS Function (Lambda/Cloud Functions) -->
<g id="node10" class="node">
<title>FaaS Function (Lambda/Cloud Functions)</title>
<polygon fill="lightblue" stroke="black" points="1324.64,-108 1078.39,-108 1078.39,-72 1324.64,-72 1324.64,-108"/>
<text text-anchor="middle" x="1201.51" y="-84.95" font-family="Times New Roman,serif" font-size="14.00">FaaS Function (Lambda/Cloud Functions)</text>
</g>
<!-- Attacker&#45;&gt;FaaS Function (Lambda/Cloud Functions) -->
<g id="edge6" class="edge API">
<title>Attacker&#45;&gt;FaaS Function (Lambda/Cloud Functions)</title>
<path fill="none" stroke="black" stroke-dasharray="1,5" d="M952.44,-30.02C995.22,-40.36 1060.38,-56.12 1113.18,-68.88"/>
<polygon fill="black" stroke="black" points="1112.23,-72.26 1122.78,-71.2 1113.88,-65.45 1112.23,-72.26"/>
<text text-anchor="middle" x="1021.14" y="-65.85" font-family="Times New Roman,serif" font-size="7.00">Function Code Injection</text>
<text text-anchor="middle" x="1021.14" y="-56.85" font-family="Times New Roman,serif" font-size="7.00">Protocol: API</text>
</g>
<!-- NoSQL Database (DynamoDB/Firestore) -->
<g id="node11" class="node">
<title>NoSQL Database (DynamoDB/Firestore)</title>
<polygon fill="lightblue" stroke="black" points="1674.89,-36 1433.14,-36 1433.14,0 1674.89,0 1674.89,-36"/>
<text text-anchor="middle" x="1554.01" y="-12.95" font-family="Times New Roman,serif" font-size="14.00">NoSQL Database (DynamoDB/Firestore)</text>
</g>
<!-- Attacker&#45;&gt;NoSQL Database (DynamoDB/Firestore) -->
<g id="edge7" class="edge API">
<title>Attacker&#45;&gt;NoSQL Database (DynamoDB/Firestore)</title>
<path fill="none" stroke="black" stroke-dasharray="1,5" d="M964.22,-18.91C1066.24,-18.75 1281.67,-18.42 1421.73,-18.2"/>
<polygon fill="black" stroke="black" points="1421.43,-21.7 1431.43,-18.19 1421.42,-14.7 1421.43,-21.7"/>
<text text-anchor="middle" x="1201.51" y="-30.08" font-family="Times New Roman,serif" font-size="7.00">Misconfigured IAM</text>
<text text-anchor="middle" x="1201.51" y="-21.08" font-family="Times New Roman,serif" font-size="7.00">Protocol: API</text>
</g>
<!-- API Gateway -->
<g id="node9" class="node">
<title>API Gateway</title>
<polygon fill="lightblue" stroke="black" points="950.63,-132 861.13,-132 861.13,-96 950.63,-96 950.63,-132"/>
<text text-anchor="middle" x="905.88" y="-108.95" font-family="Times New Roman,serif" font-size="14.00">API Gateway</text>
</g>
<!-- CloudFront/CDN&#45;&gt;API Gateway -->
<g id="edge2" class="edge HTTPS">
<title>CloudFront/CDN&#45;&gt;API Gateway</title>
<path fill="none" stroke="darkgreen" d="M647.08,-114C708.96,-114 794.16,-114 849.39,-114"/>
<polygon fill="darkgreen" stroke="darkgreen" points="647.38,-110.5 637.38,-114 647.38,-117.5 647.38,-110.5"/>
<polygon fill="darkgreen" stroke="darkgreen" points="849.18,-117.5 859.18,-114 849.18,-110.5 849.18,-117.5"/>
<text text-anchor="middle" x="800.75" y="-134.35" font-family="Times New Roman,serif" font-size="7.00">API Request</text>
<text text-anchor="middle" x="800.75" y="-125.35" font-family="Times New Roman,serif" font-size="7.00">Protocol: HTTPS</text>
<text text-anchor="middle" x="800.75" y="-116.35" font-family="Times New Roman,serif" font-size="7.00">↔️ Bidirectional</text>
</g>
<!-- API Gateway&#45;&gt;FaaS Function (Lambda/Cloud Functions) -->
<g id="edge3" class="edge Internal_API">
<title>API Gateway&#45;&gt;FaaS Function (Lambda/Cloud Functions)</title>
<path fill="none" stroke="grey" stroke-dasharray="1,5" d="M961.99,-109.5C991.69,-107.07 1029.74,-103.96 1066.68,-100.94"/>
<polygon fill="grey" stroke="grey" points="962.03,-105.98 952.35,-110.28 962.6,-112.96 962.03,-105.98"/>
<polygon fill="grey" stroke="grey" points="1066.91,-104.43 1076.59,-100.13 1066.34,-97.45 1066.91,-104.43"/>
<text text-anchor="middle" x="1021.14" y="-127.26" font-family="Times New Roman,serif" font-size="7.00">Function Invocation</text>
<text text-anchor="middle" x="1021.14" y="-118.26" font-family="Times New Roman,serif" font-size="7.00">Protocol: Internal API</text>
<text text-anchor="middle" x="1021.14" y="-109.26" font-family="Times New Roman,serif" font-size="7.00">↔️ Bidirectional</text>
</g>
<!-- FaaS Function (Lambda/Cloud Functions)&#45;&gt;S3 Bucket/Cloud Storage -->
<g id="edge5" class="edge Internal_API">
<title>FaaS Function (Lambda/Cloud Functions)&#45;&gt;S3 Bucket/Cloud Storage</title>
<path fill="none" stroke="grey" stroke-dasharray="1,5" d="M1325.1,-98.39C1367.14,-101.27 1413.65,-104.46 1453.62,-107.19"/>
<polygon fill="grey" stroke="grey" points="1453.26,-110.68 1463.48,-107.87 1453.74,-103.69 1453.26,-110.68"/>
<text text-anchor="middle" x="1378.89" y="-115.5" font-family="Times New Roman,serif" font-size="7.00">Object Storage Access</text>
<text text-anchor="middle" x="1378.89" y="-106.5" font-family="Times New Roman,serif" font-size="7.00">Protocol: Internal API</text>
</g>
<!-- FaaS Function (Lambda/Cloud Functions)&#45;&gt;NoSQL Database (DynamoDB/Firestore) -->
<g id="edge4" class="edge Internal_API">
<title>FaaS Function (Lambda/Cloud Functions)&#45;&gt;NoSQL Database (DynamoDB/Firestore)</title>
<path fill="none" stroke="grey" stroke-dasharray="1,5" d="M1292.32,-71.55C1341.06,-61.54 1401.48,-49.13 1451.88,-38.77"/>
<polygon fill="grey" stroke="grey" points="1452.56,-42.21 1461.65,-36.77 1451.15,-35.35 1452.56,-42.21"/>
<text text-anchor="middle" x="1378.89" y="-69.66" font-family="Times New Roman,serif" font-size="7.00">Database Access</text>
<text text-anchor="middle" x="1378.89" y="-60.66" font-family="Times New Roman,serif" font-size="7.00">Protocol: Internal API</text>
</g>
</g>
</svg>
