<?xml version="1.0" encoding="UTF-8" standalone="no"?>
<!DOCTYPE svg PUBLIC "-//W3C//DTD SVG 1.1//EN"
 "http://www.w3.org/Graphics/SVG/1.1/DTD/svg11.dtd">
<!-- Generated by graphviz version 12.2.1 (20241206.2353)
 -->
<!-- Title: ThreatModel Pages: 1 -->
<svg width="2245pt" height="635pt"
 viewBox="0.00 0.00 2245.33 635.00" xmlns="http://www.w3.org/2000/svg" xmlns:xlink="http://www.w3.org/1999/xlink">
<g id="graph0" class="graph" transform="scale(1 1) rotate(0) translate(4 631)">
<title>ThreatModel</title>
<polygon fill="white" stroke="none" points="-4,4 -4,-631 2241.33,-631 2241.33,4 -4,4"/>
<g id="clust1" class="cluster">
<title>cluster_Internet</title>
<polygon fill="lightcoral" stroke="black" points="8,-164 8,-619 172.77,-619 172.77,-164 8,-164"/>
<text text-anchor="middle" x="90.38" y="-601.7" font-family="Times New Roman,serif" font-size="14.00">Internet</text>
</g>
<g id="clust2" class="cluster">
<title>cluster_DMZ</title>
<polygon fill="khaki" stroke="black" points="309.02,-340 309.02,-443 1245.18,-443 1245.18,-340 309.02,-340"/>
<text text-anchor="middle" x="777.1" y="-425.7" font-family="Times New Roman,serif" font-size="14.00">DMZ</text>
</g>
<g id="clust3" class="cluster">
<title>cluster_Intranet</title>
<polygon fill="lightgreen" stroke="black" points="1049.21,-93 1049.21,-332 2229.33,-332 2229.33,-93 1049.21,-93"/>
<text text-anchor="middle" x="1639.27" y="-314.7" font-family="Times New Roman,serif" font-size="14.00">Intranet</text>
</g>
<g id="clust4" class="cluster">
<title>cluster_Command_Zone</title>
<polygon fill="lightsteelblue" stroke="black" points="1079.27,-8 1079.27,-85 1220.77,-85 1220.77,-8 1079.27,-8"/>
<text text-anchor="middle" x="1150.02" y="-67.7" font-family="Times New Roman,serif" font-size="14.00">Command_Zone</text>
</g>
<!-- External Client 1 -->
<g id="node1" class="node">
<title>External Client 1</title>
<ellipse fill="yellow" stroke="black" cx="90.38" cy="-568" rx="74.38" ry="18"/>
<text text-anchor="middle" x="90.38" y="-562.95" font-family="Times New Roman,serif" font-size="14.00">External Client 1</text>
</g>
<!-- External Firewall -->
<g id="node9" class="node">
<title>External Firewall</title>
<polygon fill="red" stroke="black" points="497.46,-379 452.35,-410.03 362.13,-410.03 317.02,-379 362.13,-347.97 452.35,-347.97 497.46,-379"/>
<text text-anchor="middle" x="407.24" y="-380.7" font-family="Times New Roman,serif" font-size="14.00">🔥</text>
<text text-anchor="middle" x="407.24" y="-367.2" font-family="Times New Roman,serif" font-size="14.00">External Firewall</text>
</g>
<!-- External Client 1&#45;&gt;External Firewall -->
<g id="edge1" class="edge">
<title>External Client 1&#45;&gt;External Firewall</title>
<path fill="none" stroke="black" d="M151.18,-578.62C195.18,-583.26 254.78,-582.63 299.02,-556 348.74,-526.06 378.41,-463.41 393.53,-421.27"/>
<polygon fill="black" stroke="black" points="396.8,-422.52 396.75,-411.93 390.18,-420.24 396.8,-422.52"/>
<text text-anchor="middle" x="240.89" y="-605.07" font-family="Times New Roman,serif" font-size="10.00">Client 1 to External Firewall</text>
<text text-anchor="middle" x="240.89" y="-593.82" font-family="Times New Roman,serif" font-size="10.00">Protocol: HTTPS</text>
<text text-anchor="middle" x="240.89" y="-582.57" font-family="Times New Roman,serif" font-size="10.00">Data: Web Traffic</text>
</g>
<!-- External Client 2 -->
<g id="node2" class="node">
<title>External Client 2</title>
<ellipse fill="yellow" stroke="black" cx="90.38" cy="-514" rx="74.38" ry="18"/>
<text text-anchor="middle" x="90.38" y="-508.95" font-family="Times New Roman,serif" font-size="14.00">External Client 2</text>
</g>
<!-- External Client 2&#45;&gt;External Firewall -->
<g id="edge2" class="edge">
<title>External Client 2&#45;&gt;External Firewall</title>
<path fill="none" stroke="black" d="M161.6,-519.36C203.5,-519.69 256.63,-514.9 299.02,-494 332.59,-477.44 360.97,-445.61 380.08,-419.63"/>
<polygon fill="black" stroke="black" points="382.85,-421.77 385.81,-411.6 377.16,-417.7 382.85,-421.77"/>
<text text-anchor="middle" x="240.89" y="-543.25" font-family="Times New Roman,serif" font-size="10.00">Client 2 to External Firewall</text>
<text text-anchor="middle" x="240.89" y="-532" font-family="Times New Roman,serif" font-size="10.00">Protocol: HTTP</text>
<text text-anchor="middle" x="240.89" y="-520.75" font-family="Times New Roman,serif" font-size="10.00">Data: Web Traffic</text>
</g>
<!-- External Client 3 -->
<g id="node3" class="node">
<title>External Client 3</title>
<ellipse fill="yellow" stroke="black" cx="90.38" cy="-460" rx="74.38" ry="18"/>
<text text-anchor="middle" x="90.38" y="-454.95" font-family="Times New Roman,serif" font-size="14.00">External Client 3</text>
</g>
<!-- External Client 3&#45;&gt;External Firewall -->
<g id="edge3" class="edge">
<title>External Client 3&#45;&gt;External Firewall</title>
<path fill="none" stroke="black" d="M164.83,-458.17C205.19,-455.52 255.71,-449.48 299.02,-436 316.27,-430.63 333.99,-422.46 349.93,-413.98"/>
<polygon fill="black" stroke="black" points="351.19,-417.28 358.27,-409.4 347.82,-411.14 351.19,-417.28"/>
<text text-anchor="middle" x="240.89" y="-480.63" font-family="Times New Roman,serif" font-size="10.00">Client 3 to External Firewall</text>
<text text-anchor="middle" x="240.89" y="-469.38" font-family="Times New Roman,serif" font-size="10.00">Protocol: FTP</text>
<text text-anchor="middle" x="240.89" y="-458.13" font-family="Times New Roman,serif" font-size="10.00">Data: File Transfer</text>
</g>
<!-- External Client 4 -->
<g id="node4" class="node">
<title>External Client 4</title>
<ellipse fill="yellow" stroke="black" cx="90.38" cy="-406" rx="74.38" ry="18"/>
<text text-anchor="middle" x="90.38" y="-400.95" font-family="Times New Roman,serif" font-size="14.00">External Client 4</text>
</g>
<!-- External Client 4&#45;&gt;External Firewall -->
<g id="edge4" class="edge">
<title>External Client 4&#45;&gt;External Firewall</title>
<path fill="none" stroke="black" d="M160.87,-400.04C206.23,-396.15 265.94,-391.03 315.09,-386.82"/>
<polygon fill="black" stroke="black" points="315.21,-390.32 324.87,-385.98 314.61,-383.34 315.21,-390.32"/>
<text text-anchor="middle" x="240.89" y="-422.27" font-family="Times New Roman,serif" font-size="10.00">Client 4 to External Firewall</text>
<text text-anchor="middle" x="240.89" y="-411.02" font-family="Times New Roman,serif" font-size="10.00">Protocol: SFTP</text>
<text text-anchor="middle" x="240.89" y="-399.77" font-family="Times New Roman,serif" font-size="10.00">Data: File Transfer</text>
</g>
<!-- External Client 5 -->
<g id="node5" class="node">
<title>External Client 5</title>
<ellipse fill="yellow" stroke="black" cx="90.38" cy="-352" rx="74.38" ry="18"/>
<text text-anchor="middle" x="90.38" y="-346.95" font-family="Times New Roman,serif" font-size="14.00">External Client 5</text>
</g>
<!-- External Client 5&#45;&gt;External Firewall -->
<g id="edge5" class="edge">
<title>External Client 5&#45;&gt;External Firewall</title>
<path fill="none" stroke="black" d="M165.2,-351.34C171.14,-351.31 177.05,-351.27 182.77,-351.25 234.43,-351.04 247.76,-344.73 299.02,-351.25 310.03,-352.65 321.53,-354.83 332.74,-357.37"/>
<polygon fill="black" stroke="black" points="331.81,-360.75 342.35,-359.66 333.44,-353.94 331.81,-360.75"/>
<text text-anchor="middle" x="240.89" y="-375.5" font-family="Times New Roman,serif" font-size="10.00">Client 5 to External Firewall</text>
<text text-anchor="middle" x="240.89" y="-364.25" font-family="Times New Roman,serif" font-size="10.00">Protocol: DNS</text>
<text text-anchor="middle" x="240.89" y="-353" font-family="Times New Roman,serif" font-size="10.00">Data: DNS Query</text>
</g>
<!-- External Client 6 -->
<g id="node6" class="node">
<title>External Client 6</title>
<ellipse fill="yellow" stroke="black" cx="90.38" cy="-298" rx="74.38" ry="18"/>
<text text-anchor="middle" x="90.38" y="-292.95" font-family="Times New Roman,serif" font-size="14.00">External Client 6</text>
</g>
<!-- External Client 6&#45;&gt;External Firewall -->
<g id="edge6" class="edge">
<title>External Client 6&#45;&gt;External Firewall</title>
<path fill="none" stroke="black" d="M162.71,-293.39C203.56,-292.91 255.23,-296.01 299.02,-310.25 320.15,-317.12 341.21,-329.19 359,-341.32"/>
<polygon fill="black" stroke="black" points="356.56,-343.88 366.75,-346.77 360.58,-338.16 356.56,-343.88"/>
<text text-anchor="middle" x="240.89" y="-334.5" font-family="Times New Roman,serif" font-size="10.00">Client 6 to External Firewall</text>
<text text-anchor="middle" x="240.89" y="-323.25" font-family="Times New Roman,serif" font-size="10.00">Protocol: SMTP</text>
<text text-anchor="middle" x="240.89" y="-312" font-family="Times New Roman,serif" font-size="10.00">Data: Mail Traffic</text>
</g>
<!-- External Client 7 -->
<g id="node7" class="node">
<title>External Client 7</title>
<ellipse fill="yellow" stroke="black" cx="90.38" cy="-244" rx="74.38" ry="18"/>
<text text-anchor="middle" x="90.38" y="-238.95" font-family="Times New Roman,serif" font-size="14.00">External Client 7</text>
</g>
<!-- External Client 7&#45;&gt;External Firewall -->
<g id="edge7" class="edge">
<title>External Client 7&#45;&gt;External Firewall</title>
<path fill="none" stroke="black" d="M156.41,-235.3C199.08,-232.52 254.92,-234.63 299.02,-256.25 335.04,-273.91 364.05,-309.66 382.76,-338.05"/>
<polygon fill="black" stroke="black" points="379.81,-339.92 388.14,-346.46 385.71,-336.15 379.81,-339.92"/>
<text text-anchor="middle" x="240.89" y="-280.5" font-family="Times New Roman,serif" font-size="10.00">Client 7 to External Firewall</text>
<text text-anchor="middle" x="240.89" y="-269.25" font-family="Times New Roman,serif" font-size="10.00">Protocol: RTSP</text>
<text text-anchor="middle" x="240.89" y="-258" font-family="Times New Roman,serif" font-size="10.00">Data: Video Stream</text>
</g>
<!-- External Client 8 -->
<g id="node8" class="node">
<title>External Client 8</title>
<ellipse fill="yellow" stroke="black" cx="90.38" cy="-190" rx="74.38" ry="18"/>
<text text-anchor="middle" x="90.38" y="-184.95" font-family="Times New Roman,serif" font-size="14.00">External Client 8</text>
</g>
<!-- External Client 8&#45;&gt;External Firewall -->
<g id="edge8" class="edge">
<title>External Client 8&#45;&gt;External Firewall</title>
<path fill="none" stroke="black" d="M146.55,-177.87C190.88,-171.19 253.1,-169.03 299.02,-196.25 350.83,-226.97 380.23,-293.16 394.69,-336.87"/>
<polygon fill="black" stroke="black" points="391.32,-337.82 397.67,-346.3 397.99,-335.71 391.32,-337.82"/>
<text text-anchor="middle" x="240.89" y="-220.5" font-family="Times New Roman,serif" font-size="10.00">Client 8 to External Firewall</text>
<text text-anchor="middle" x="240.89" y="-209.25" font-family="Times New Roman,serif" font-size="10.00">Protocol: MQTT</text>
<text text-anchor="middle" x="240.89" y="-198" font-family="Times New Roman,serif" font-size="10.00">Data: IoT Data</text>
</g>
<!-- Protocol Break Device -->
<g id="node10" class="node">
<title>Protocol Break Device</title>
<polygon fill="lightgreen" stroke="black" points="848.71,-395 708.96,-395 708.96,-359 848.71,-359 848.71,-395"/>
<text text-anchor="middle" x="778.84" y="-371.95" font-family="Times New Roman,serif" font-size="14.00">Protocol Break Device</text>
</g>
<!-- External Firewall&#45;&gt;Protocol Break Device -->
<g id="edge9" class="edge">
<title>External Firewall&#45;&gt;Protocol Break Device</title>
<path fill="none" stroke="black" d="M497.24,-378.52C558.11,-378.19 638.16,-377.76 697.17,-377.44"/>
<polygon fill="black" stroke="black" points="697.19,-380.94 707.17,-377.38 697.15,-373.94 697.19,-380.94"/>
<text text-anchor="middle" x="603.21" y="-402.66" font-family="Times New Roman,serif" font-size="10.00">External Firewall to Protocol Break Device</text>
<text text-anchor="middle" x="603.21" y="-391.41" font-family="Times New Roman,serif" font-size="10.00">Protocol: HTTPS</text>
<text text-anchor="middle" x="603.21" y="-380.16" font-family="Times New Roman,serif" font-size="10.00">Data: Web Traffic</text>
</g>
<!-- Internal Firewall -->
<g id="node11" class="node">
<title>Internal Firewall</title>
<polygon fill="red" stroke="black" points="1237.18,-379 1193.6,-410.03 1106.44,-410.03 1062.86,-379 1106.44,-347.97 1193.6,-347.97 1237.18,-379"/>
<text text-anchor="middle" x="1150.02" y="-380.7" font-family="Times New Roman,serif" font-size="14.00">🔥</text>
<text text-anchor="middle" x="1150.02" y="-367.2" font-family="Times New Roman,serif" font-size="14.00">Internal Firewall</text>
</g>
<!-- Protocol Break Device&#45;&gt;Internal Firewall -->
<g id="edge10" class="edge">
<title>Protocol Break Device&#45;&gt;Internal Firewall</title>
<path fill="none" stroke="black" d="M848.84,-377.37C905.94,-377.68 987.72,-378.13 1051.51,-378.47"/>
<polygon fill="black" stroke="black" points="1051.26,-381.97 1061.28,-378.52 1051.3,-374.97 1051.26,-381.97"/>
<text text-anchor="middle" x="952.96" y="-402.6" font-family="Times New Roman,serif" font-size="10.00">Protocol Break Device to Internal Firewall</text>
<text text-anchor="middle" x="952.96" y="-391.35" font-family="Times New Roman,serif" font-size="10.00">Protocol: HTTPS</text>
<text text-anchor="middle" x="952.96" y="-380.1" font-family="Times New Roman,serif" font-size="10.00">Data: Web Traffic</text>
</g>
<!-- Switch -->
<g id="node15" class="node">
<title>Switch</title>
<polygon fill="orange" stroke="black" points="1488.08,-199 1434.58,-161 1488.08,-123 1541.58,-161 1488.08,-199"/>
<text text-anchor="middle" x="1488.08" y="-162.7" font-family="Times New Roman,serif" font-size="14.00">🔀</text>
<text text-anchor="middle" x="1488.08" y="-149.2" font-family="Times New Roman,serif" font-size="14.00">Switch</text>
</g>
<!-- Internal Firewall&#45;&gt;Switch -->
<g id="edge11" class="edge">
<title>Internal Firewall&#45;&gt;Switch</title>
<path fill="none" stroke="black" d="M1203.94,-355.18C1217.43,-349.02 1231.87,-342.33 1245.18,-336 1310.3,-305.02 1342.75,-317.97 1390.58,-264 1406.52,-246.01 1393.79,-231.95 1408.58,-213 1418.45,-200.35 1432.29,-189.75 1445.61,-181.5"/>
<polygon fill="black" stroke="black" points="1446.99,-184.74 1453.85,-176.67 1443.45,-178.71 1446.99,-184.74"/>
<text text-anchor="middle" x="1325.7" y="-352.16" font-family="Times New Roman,serif" font-size="10.00">Internal Firewall to Switch</text>
<text text-anchor="middle" x="1325.7" y="-340.91" font-family="Times New Roman,serif" font-size="10.00">Protocol: Ethernet</text>
<text text-anchor="middle" x="1325.7" y="-329.66" font-family="Times New Roman,serif" font-size="10.00">Data: General Traffic</text>
</g>
<!-- Internal Operator 1 -->
<g id="node12" class="node">
<title>Internal Operator 1</title>
<ellipse fill="yellow" stroke="black" cx="1150.02" cy="-119" rx="82.06" ry="18"/>
<text text-anchor="middle" x="1150.02" y="-113.95" font-family="Times New Roman,serif" font-size="14.00">Internal Operator 1</text>
</g>
<!-- Internal Operator 1&#45;&gt;Switch -->
<g id="edge13" class="edge">
<title>Internal Operator 1&#45;&gt;Switch</title>
<path fill="none" stroke="black" d="M1231.26,-115.76C1278.1,-115.36 1338.12,-117.41 1390.58,-127.25 1408.46,-130.61 1427.5,-136.69 1443.9,-142.77"/>
<polygon fill="black" stroke="black" points="1442.26,-145.89 1452.85,-146.2 1444.76,-139.35 1442.26,-145.89"/>
<text text-anchor="middle" x="1325.7" y="-151.5" font-family="Times New Roman,serif" font-size="10.00">Internal Operator 1 to Switch</text>
<text text-anchor="middle" x="1325.7" y="-140.25" font-family="Times New Roman,serif" font-size="10.00">Protocol: Ethernet</text>
<text text-anchor="middle" x="1325.7" y="-129" font-family="Times New Roman,serif" font-size="10.00">Data: General Traffic</text>
</g>
<!-- Internal Operator 2 -->
<g id="node13" class="node">
<title>Internal Operator 2</title>
<ellipse fill="yellow" stroke="black" cx="1150.02" cy="-173" rx="82.06" ry="18"/>
<text text-anchor="middle" x="1150.02" y="-167.95" font-family="Times New Roman,serif" font-size="14.00">Internal Operator 2</text>
</g>
<!-- Internal Operator 2&#45;&gt;Switch -->
<g id="edge14" class="edge">
<title>Internal Operator 2&#45;&gt;Switch</title>
<path fill="none" stroke="black" d="M1231.51,-170.13C1290.97,-168 1370.73,-165.15 1425.23,-163.21"/>
<polygon fill="black" stroke="black" points="1425.08,-166.72 1434.95,-162.86 1424.83,-159.72 1425.08,-166.72"/>
<text text-anchor="middle" x="1325.7" y="-193.03" font-family="Times New Roman,serif" font-size="10.00">Internal Operator 2 to Switch</text>
<text text-anchor="middle" x="1325.7" y="-181.78" font-family="Times New Roman,serif" font-size="10.00">Protocol: Ethernet</text>
<text text-anchor="middle" x="1325.7" y="-170.53" font-family="Times New Roman,serif" font-size="10.00">Data: General Traffic</text>
</g>
<!-- System Administrator -->
<g id="node14" class="node">
<title>System Administrator</title>
<ellipse fill="yellow" stroke="black" cx="1150.02" cy="-227" rx="92.81" ry="18"/>
<text text-anchor="middle" x="1150.02" y="-221.95" font-family="Times New Roman,serif" font-size="14.00">System Administrator</text>
</g>
<!-- System Administrator&#45;&gt;Switch -->
<g id="edge15" class="edge">
<title>System Administrator&#45;&gt;Switch</title>
<path fill="none" stroke="black" d="M1243.08,-227.05C1288.19,-225.13 1342.94,-219.88 1390.58,-207 1410.31,-201.66 1430.93,-192.41 1448.01,-183.59"/>
<polygon fill="black" stroke="black" points="1449.63,-186.69 1456.82,-178.9 1446.35,-180.51 1449.63,-186.69"/>
<text text-anchor="middle" x="1325.7" y="-250.34" font-family="Times New Roman,serif" font-size="10.00">System Administrator to Switch</text>
<text text-anchor="middle" x="1325.7" y="-239.09" font-family="Times New Roman,serif" font-size="10.00">Protocol: Ethernet</text>
<text text-anchor="middle" x="1325.7" y="-227.84" font-family="Times New Roman,serif" font-size="10.00">Data: General Traffic</text>
</g>
<!-- Central Server -->
<g id="node16" class="node">
<title>Central Server</title>
<polygon fill="lightgreen" stroke="black" points="1889.58,-244 1794.83,-244 1794.83,-208 1889.58,-208 1889.58,-244"/>
<text text-anchor="middle" x="1842.2" y="-220.95" font-family="Times New Roman,serif" font-size="14.00">Central Server</text>
</g>
<!-- System Administrator&#45;&gt;Central Server -->
<g id="edge17" class="edge">
<title>System Administrator&#45;&gt;Central Server</title>
<path fill="none" stroke="black" d="M1209.73,-240.99C1221.69,-244.62 1234.02,-248.96 1245.18,-254 1252.7,-257.4 1252.91,-261.68 1260.83,-264 1316.18,-280.18 1336.27,-283.41 1390.58,-264 1400.32,-260.52 1398.93,-252.98 1408.58,-249.25 1485,-219.67 1695.02,-234.68 1776.83,-230 1778.88,-229.88 1780.96,-229.76 1783.07,-229.64"/>
<polygon fill="black" stroke="black" points="1783.16,-233.14 1792.93,-229.05 1782.74,-226.15 1783.16,-233.14"/>
<text text-anchor="middle" x="1488.08" y="-273.5" font-family="Times New Roman,serif" font-size="10.00">System Administrator to Central Server</text>
<text text-anchor="middle" x="1488.08" y="-262.25" font-family="Times New Roman,serif" font-size="10.00">Protocol: SSH</text>
<text text-anchor="middle" x="1488.08" y="-251" font-family="Times New Roman,serif" font-size="10.00">Data: SSH Traffic</text>
</g>
<!-- Authentication Server -->
<g id="node18" class="node">
<title>Authentication Server</title>
<polygon fill="lightgreen" stroke="black" points="2221.33,-264 2086.08,-264 2086.08,-228 2221.33,-228 2221.33,-264"/>
<text text-anchor="middle" x="2153.7" y="-240.95" font-family="Times New Roman,serif" font-size="14.00">Authentication Server</text>
</g>
<!-- System Administrator&#45;&gt;Authentication Server -->
<g id="edge18" class="edge">
<title>System Administrator&#45;&gt;Authentication Server</title>
<path fill="none" stroke="black" d="M1216.95,-239.7C1226.93,-243.34 1236.71,-248.01 1245.18,-254 1254.97,-260.93 1250.3,-270.25 1260.83,-276 1318.52,-307.52 1342.86,-281.44 1408.58,-283 1701.77,-289.94 1776.57,-293.1 2068.08,-261 2070.25,-260.76 2072.44,-260.5 2074.66,-260.22"/>
<polygon fill="black" stroke="black" points="2074.91,-263.72 2084.34,-258.89 2073.96,-256.79 2074.91,-263.72"/>
<text text-anchor="middle" x="1681.2" y="-311.81" font-family="Times New Roman,serif" font-size="10.00">System Administrator to Authentication Server</text>
<text text-anchor="middle" x="1681.2" y="-300.56" font-family="Times New Roman,serif" font-size="10.00">Protocol: LDAPS</text>
<text text-anchor="middle" x="1681.2" y="-289.31" font-family="Times New Roman,serif" font-size="10.00">Data: Authentication Request</text>
</g>
<!-- Switch&#45;&gt;Central Server -->
<g id="edge16" class="edge">
<title>Switch&#45;&gt;Central Server</title>
<path fill="none" stroke="black" d="M1540.18,-162.49C1598.46,-165.27 1696.11,-173.27 1776.83,-196.25 1783.2,-198.06 1789.74,-200.43 1796.09,-203.04"/>
<polygon fill="black" stroke="black" points="1794.59,-206.2 1805.15,-206.99 1797.39,-199.78 1794.59,-206.2"/>
<text text-anchor="middle" x="1681.2" y="-220.5" font-family="Times New Roman,serif" font-size="10.00">Switch to Central Server</text>
<text text-anchor="middle" x="1681.2" y="-209.25" font-family="Times New Roman,serif" font-size="10.00">Protocol: HTTPS</text>
<text text-anchor="middle" x="1681.2" y="-198" font-family="Times New Roman,serif" font-size="10.00">Data: Server Request</text>
</g>
<!-- Central Server&#45;&gt;Authentication Server -->
<g id="edge19" class="edge">
<title>Central Server&#45;&gt;Authentication Server</title>
<path fill="none" stroke="black" d="M1889.88,-223.38C1935.48,-221.5 2006.78,-220.37 2068.08,-227.25 2070.26,-227.5 2072.48,-227.77 2074.71,-228.08"/>
<polygon fill="black" stroke="black" points="2074.03,-231.52 2084.45,-229.6 2075.11,-224.6 2074.03,-231.52"/>
<text text-anchor="middle" x="1987.83" y="-251.5" font-family="Times New Roman,serif" font-size="10.00">Central Server to Authentication Server</text>
<text text-anchor="middle" x="1987.83" y="-240.25" font-family="Times New Roman,serif" font-size="10.00">Protocol: LDAPS</text>
<text text-anchor="middle" x="1987.83" y="-229" font-family="Times New Roman,serif" font-size="10.00">Data: Authentication Request</text>
</g>
<!-- Application Database -->
<g id="node17" class="node">
<title>Application Database</title>
<polygon fill="lightgreen" stroke="black" points="1216.52,-299 1083.52,-299 1083.52,-263 1216.52,-263 1216.52,-299"/>
<text text-anchor="middle" x="1150.02" y="-275.95" font-family="Times New Roman,serif" font-size="14.00">Application Database</text>
</g>
<!-- Command Machine -->
<g id="node19" class="node">
<title>Command Machine</title>
<polygon fill="lightgreen" stroke="black" points="1212.77,-52 1087.27,-52 1087.27,-16 1212.77,-16 1212.77,-52"/>
<text text-anchor="middle" x="1150.02" y="-28.95" font-family="Times New Roman,serif" font-size="14.00">Command Machine</text>
</g>
<!-- Command Machine&#45;&gt;Switch -->
<g id="edge12" class="edge">
<title>Command Machine&#45;&gt;Switch</title>
<path fill="none" stroke="black" d="M1213.05,-36.59C1263.1,-40.73 1334.19,-51.31 1390.58,-78.25 1416.65,-90.71 1441.3,-112.07 1459.16,-129.97"/>
<polygon fill="black" stroke="black" points="1456.33,-132.09 1465.81,-136.82 1461.36,-127.21 1456.33,-132.09"/>
<text text-anchor="middle" x="1325.7" y="-102.5" font-family="Times New Roman,serif" font-size="10.00">Command Machine to Switch</text>
<text text-anchor="middle" x="1325.7" y="-91.25" font-family="Times New Roman,serif" font-size="10.00">Protocol: Ethernet</text>
<text text-anchor="middle" x="1325.7" y="-80" font-family="Times New Roman,serif" font-size="10.00">Data: General Traffic</text>
</g>
</g>
</svg>
